<svg width="24" height="24" viewBox="0 0 24 24" fill="none" xmlns="http://www.w3.org/2000/svg">
<path opacity="0.35" d="M16 4H8V12H16V4Z" fill="#FF015C"/>
<path opacity="0.35" d="M18 22H6C4.343 22 3 20.657 3 19V13C3 11.895 3.895 11 5 11H6C6 11 8 14 12 14C16 14 18 11 18 11H19C20.105 11 21 11.895 21 13V19C21 20.657 19.657 22 18 22Z" fill="#FF015C"/>
<path d="M16 2H8C6.9 2 6 2.9 6 4V11C6 11 6 11 6 11.01C6.15 11.22 8.15 14 12 14C15.85 14 17.85 11.22 18 11.01C18 11 18 11 18 11V4C18 2.9 17.1 2 16 2ZM10 9.5C9.17 9.5 8.5 8.83 8.5 8C8.5 7.17 9.17 6.5 10 6.5C10.83 6.5 11.5 7.17 11.5 8C11.5 8.83 10.83 9.5 10 9.5ZM15 10C15 10.55 14.55 11 14 11C13.45 11 13 10.55 13 10V6C13 5.45 13.45 5 14 5C14.55 5 15 5.45 15 6V10Z" fill="#FF015C"/>
</svg>
