<svg width="25" height="24" viewBox="0 0 25 24" fill="none" xmlns="http://www.w3.org/2000/svg">
<path d="M18.4 4.1C18.1 4.1 17.8 4 17.5 4H9.5C7.8 4 6.5 5.3 6.5 7V19C6.5 19.3 6.6 19.6 6.6 19.9C5.4 19.5 4.5 18.4 4.5 17V5C4.5 3.3 5.8 2 7.5 2H15.5C16.9 2 18 2.9 18.4 4.1Z" fill="#FF015C"/>
<path opacity="0.35" d="M6.5 19L5.5 7C5.5 5.3 7.8 3 9.5 3L17.5 4C19.2 4 20.5 5.3 20.5 7V19C20.5 20.7 19.2 22 17.5 22H9.5C7.8 22 6.5 20.7 6.5 19Z" fill="#FF015C"/>
<path d="M16.5 10H10.5C9.9 10 9.5 9.6 9.5 9C9.5 8.4 9.9 8 10.5 8H16.5C17.1 8 17.5 8.4 17.5 9C17.5 9.6 17.1 10 16.5 10Z" fill="#FF015C"/>
<path d="M16.5 14H10.5C9.9 14 9.5 13.6 9.5 13C9.5 12.4 9.9 12 10.5 12H16.5C17.1 12 17.5 12.4 17.5 13C17.5 13.6 17.1 14 16.5 14Z" fill="#FF015C"/>
<path d="M16.5 18H10.5C9.9 18 9.5 17.6 9.5 17C9.5 16.4 9.9 16 10.5 16H16.5C17.1 16 17.5 16.4 17.5 17C17.5 17.6 17.1 18 16.5 18Z" fill="#FF015C"/>
</svg>
