<svg width="25" height="24" viewBox="0 0 25 24" fill="none" xmlns="http://www.w3.org/2000/svg">
<path opacity="0.35" d="M16.5 18.928C17.178 18.537 17.959 18.504 18.635 18.764C19.199 18.981 19.844 18.801 20.227 18.334C20.91 17.501 21.461 16.556 21.848 15.529C22.069 14.942 21.86 14.297 21.381 13.891C20.842 13.437 20.5 12.761 20.5 12C20.5 11.239 20.842 10.563 21.38 10.107C21.859 9.701 22.069 9.057 21.847 8.469C21.46 7.443 20.91 6.497 20.226 5.664C19.843 5.197 19.198 5.017 18.634 5.234C17.959 5.496 17.178 5.463 16.5 5.072C15.82 4.679 15.4 4.016 15.29 3.297C15.2 2.709 14.734 2.239 14.147 2.139C13.611 2.048 13.061 2 12.5 2C11.939 2 11.389 2.048 10.853 2.139C10.266 2.239 9.801 2.709 9.71 3.297C9.6 4.016 9.18 4.679 8.5 5.072C7.822 5.463 7.041 5.496 6.365 5.235C5.801 5.018 5.156 5.198 4.773 5.665C4.09 6.498 3.54 7.443 3.153 8.47C2.931 9.057 3.141 9.702 3.62 10.107C4.158 10.563 4.5 11.239 4.5 12C4.5 12.761 4.158 13.437 3.62 13.893C3.141 14.299 2.931 14.943 3.153 15.531C3.54 16.557 4.09 17.503 4.774 18.336C5.157 18.803 5.802 18.983 6.366 18.766C7.041 18.504 7.822 18.537 8.5 18.928C9.18 19.321 9.6 19.984 9.71 20.703C9.8 21.291 10.266 21.761 10.853 21.861C11.389 21.952 11.939 22 12.5 22C13.061 22 13.611 21.952 14.147 21.861C14.734 21.762 15.2 21.292 15.29 20.703C15.4 19.984 15.82 19.321 16.5 18.928Z" fill="#FF015C"/>
<path d="M12.5 8C10.291 8 8.5 9.791 8.5 12C8.5 14.209 10.291 16 12.5 16C14.709 16 16.5 14.209 16.5 12C16.5 9.791 14.709 8 12.5 8Z" fill="#FF015C"/>
</svg>
