<svg width="24" height="24" viewBox="0 0 24 24" fill="none" xmlns="http://www.w3.org/2000/svg">
<path opacity="0.35" d="M12 2C6.477 2 2 6.477 2 12V16H5V12C5 8.134 8.134 5 12 5C15.866 5 19 8.134 19 12V16H22V12C22 6.477 17.523 2 12 2Z" fill="#FF015C"/>
<path d="M21 12H19C17.895 12 17 12.895 17 14V16C17 17.105 17.895 18 19 18H21C21.552 18 22 17.552 22 17V13C22 12.448 21.552 12 21 12Z" fill="#FF015C"/>
<path d="M3 12H5C6.105 12 7 12.895 7 14V16C7 17.105 6.105 18 5 18H3C2.448 18 2 17.552 2 17V13C2 12.448 2.448 12 3 12Z" fill="#FF015C"/>
<path opacity="0.35" d="M5 18V17H3V18C3 20.209 4.791 22 7 22H12V20H7C5.895 20 5 19.105 5 18Z" fill="#FF015C"/>
<path d="M12 23C13.1046 23 14 22.1046 14 21C14 19.8954 13.1046 19 12 19C10.8954 19 10 19.8954 10 21C10 22.1046 10.8954 23 12 23Z" fill="#FF015C"/>
</svg>
