<svg width="24" height="24" viewBox="0 0 24 24" fill="none" xmlns="http://www.w3.org/2000/svg">
<path opacity="0.35" d="M20 21L4 15V9L20 3V21Z" fill="#FF015C"/>
<path d="M5 14.5C5 14.114 5 9.886 5 9.5C5 8.672 4.328 8 3.5 8C2.672 8 2 8.672 2 9.5C2 9.886 2 14.114 2 14.5C2 15.328 2.672 16 3.5 16C4.328 16 5 15.328 5 14.5Z" fill="#FF015C"/>
<path d="M22 20.5C22 20.114 22 3.886 22 3.5C22 2.672 21.328 2 20.5 2C19.672 2 19 2.672 19 3.5C19 3.886 19 20.114 19 20.5C19 21.328 19.672 22 20.5 22C21.328 22 22 21.328 22 20.5Z" fill="#FF015C"/>
<path d="M7.99518 16.498L7.96018 16.591C7.57118 17.625 8.09418 18.778 9.12818 19.167L11.0002 19.871C12.0342 20.26 13.1872 19.737 13.5762 18.703L13.6132 18.604L7.99518 16.498Z" fill="#FF015C"/>
</svg>
