<svg width="24" height="24" viewBox="0 0 24 24" fill="none" xmlns="http://www.w3.org/2000/svg">
<path d="M7.7793 4C6.0102 4 4.47307 5.25651 4.12305 6.99023V6.99219L3.71876 9H2.00001C1.86749 8.99813 1.73593 9.02261 1.61296 9.07202C1.48999 9.12143 1.37807 9.1948 1.2837 9.28784C1.18933 9.38088 1.1144 9.49176 1.06325 9.61401C1.0121 9.73627 0.985764 9.86748 0.985764 10C0.985764 10.1325 1.0121 10.2637 1.06325 10.386C1.1144 10.5082 1.18933 10.6191 1.2837 10.7122C1.37807 10.8052 1.48999 10.8786 1.61296 10.928C1.73593 10.9774 1.86749 11.0019 2.00001 11H2.42969C2.15975 11.5456 2.00001 12.1438 2.00001 12.7637V16V19C2.00001 19.552 2.44801 20 3.00001 20H4.00001C4.55201 20 5.00001 19.552 5.00001 19H19C19 19.552 19.448 20 20 20H21C21.552 20 22 19.552 22 19V16V12.7637C22 12.1438 21.8403 11.5456 21.5703 11H22C22.1325 11.0019 22.2641 10.9774 22.387 10.928C22.51 10.8786 22.6219 10.8052 22.7163 10.7122C22.8107 10.6191 22.8856 10.5082 22.9368 10.386C22.9879 10.2637 23.0142 10.1325 23.0142 10C23.0142 9.86748 22.9879 9.73627 22.9368 9.61401C22.8856 9.49176 22.8107 9.38088 22.7163 9.28784C22.6219 9.1948 22.51 9.12143 22.387 9.07202C22.2641 9.02261 22.1325 8.99813 22 9H20.2813L19.877 6.99219V6.99023C19.5269 5.25651 17.9898 4 16.2207 4H7.7793ZM7.7793 6H16.2207C17.0496 6 17.752 6.57444 17.916 7.38672L18.4824 10.1973C18.5221 10.3941 18.6201 10.5745 18.7637 10.7148L19.3965 11.332C19.7831 11.7092 20 12.2246 20 12.7637V16C20 16.565 19.565 17 19 17H5.00001C4.43498 17 4.00001 16.565 4.00001 16V12.7637C4.00001 12.2246 4.21696 11.7092 4.60352 11.332L5.23633 10.7148C5.37992 10.5745 5.47792 10.3941 5.51758 10.1973L6.08399 7.38672C6.24798 6.57444 6.95041 6 7.7793 6ZM6.00001 12C5.44801 12 5.00001 12.448 5.00001 13V14H6.00001C6.55201 14 7.00001 13.552 7.00001 13V12H6.00001ZM9.00001 12V12.5977C9.00001 13.1407 9.34057 13.6275 9.85157 13.8125L12 14.5898L14.1484 13.8125C14.6594 13.6265 15 13.1407 15 12.5977V12H9.00001ZM17 12V13C17 13.552 17.448 14 18 14H19V13C19 12.448 18.552 12 18 12H17Z" fill="#111214"/>
</svg>
