<svg width="24" height="24" viewBox="0 0 24 24" fill="none" xmlns="http://www.w3.org/2000/svg">
<path opacity="0.35" d="M22 9.184V7C22 5.343 20.657 4 19 4H5C3.343 4 2 5.343 2 7V9.184C3.163 9.597 4 10.696 4 12C4 13.304 3.163 14.403 2 14.816V17C2 18.657 3.343 20 5 20H19C20.657 20 22 18.657 22 17V14.816C20.837 14.403 20 13.304 20 12C20 10.696 20.837 9.597 22 9.184Z" fill="#FF015C"/>
<path d="M8.00001 17C7.74401 17 7.48801 16.902 7.29301 16.707C6.90201 16.316 6.90201 15.684 7.29301 15.293L15.293 7.29301C15.684 6.90201 16.316 6.90201 16.707 7.29301C17.098 7.68401 17.098 8.31601 16.707 8.70701L8.70701 16.707C8.51201 16.902 8.25601 17 8.00001 17Z" fill="#FF015C"/>
<path d="M15.5 17C16.3284 17 17 16.3284 17 15.5C17 14.6716 16.3284 14 15.5 14C14.6716 14 14 14.6716 14 15.5C14 16.3284 14.6716 17 15.5 17Z" fill="#FF015C"/>
<path d="M8.5 10C9.32843 10 10 9.32843 10 8.5C10 7.67157 9.32843 7 8.5 7C7.67157 7 7 7.67157 7 8.5C7 9.32843 7.67157 10 8.5 10Z" fill="#FF015C"/>
</svg>
