<svg width="25" height="24" viewBox="0 0 25 24" fill="none" xmlns="http://www.w3.org/2000/svg">
<path opacity="0.35" d="M20.5 18C20.5 19.657 19.157 21 17.5 21H8.5C6.843 21 5.5 19.657 5.5 18V6C5.5 4.343 6.843 3 8.5 3H17.5C19.157 3 20.5 4.343 20.5 6V18Z" fill="#FF015C"/>
<path d="M14.5 18V17C14.5 15.895 13.605 15 12.5 15H4.5C3.395 15 2.5 15.895 2.5 17V18C2.5 19.657 3.843 21 5.5 21H17.5C15.843 21 14.5 19.657 14.5 18Z" fill="#FF015C"/>
<path d="M16.5 9H13.5C12.947 9 12.5 8.552 12.5 8C12.5 7.448 12.947 7 13.5 7H16.5C17.053 7 17.5 7.448 17.5 8C17.5 8.552 17.053 9 16.5 9Z" fill="#FF015C"/>
<path d="M16.5 13H13.5C12.947 13 12.5 12.552 12.5 12C12.5 11.448 12.947 11 13.5 11H16.5C17.053 11 17.5 11.448 17.5 12C17.5 12.552 17.053 13 16.5 13Z" fill="#FF015C"/>
<path d="M9.5 9C10.0523 9 10.5 8.55228 10.5 8C10.5 7.44772 10.0523 7 9.5 7C8.94772 7 8.5 7.44772 8.5 8C8.5 8.55228 8.94772 9 9.5 9Z" fill="#FF015C"/>
<path d="M9.5 13C10.0523 13 10.5 12.5523 10.5 12C10.5 11.4477 10.0523 11 9.5 11C8.94772 11 8.5 11.4477 8.5 12C8.5 12.5523 8.94772 13 9.5 13Z" fill="#FF015C"/>
</svg>
