<svg width="24" height="24" viewBox="0 0 24 24" fill="none" xmlns="http://www.w3.org/2000/svg">
<path opacity="0.35" d="M19 4H5C3.343 4 2 5.343 2 7V15C2 16.657 3.343 18 5 18H13V21H17V18H19C20.657 18 22 16.657 22 15V7C22 5.343 20.657 4 19 4Z" fill="#FF015C"/>
<path d="M23 12H16C15.448 12 15 12.448 15 13V19.5C15 20.328 15.672 21 16.5 21H22.5C23.328 21 24 20.328 24 19.5V13C24 12.448 23.552 12 23 12ZM17.75 15.5C17.336 15.5 17 15.164 17 14.75C17 14.336 17.336 14 17.75 14C18.164 14 18.5 14.336 18.5 14.75C18.5 15.164 18.164 15.5 17.75 15.5ZM21.25 15.5C20.836 15.5 20.5 15.164 20.5 14.75C20.5 14.336 20.836 14 21.25 14C21.664 14 22 14.336 22 14.75C22 15.164 21.664 15.5 21.25 15.5Z" fill="#FF015C"/>
<path d="M19.5 10C18.119 10 17 11.119 17 12.5H18C18 11.672 18.672 11 19.5 11C20.328 11 21 11.672 21 12.5H22C22 11.119 20.881 10 19.5 10Z" fill="#FF015C"/>
<path d="M13 18C7.985 18 2.594 18 2.5 18C1.672 18 1 18.672 1 19.5C1 20.328 1.672 21 2.5 21C2.594 21 7.985 21 13 21V18Z" fill="#FF015C"/>
</svg>
