<svg width="16" height="16" viewBox="0 0 16 16" fill="none" xmlns="http://www.w3.org/2000/svg">
<path fill-rule="evenodd" clip-rule="evenodd" d="M8.86534 14.1461C8.69534 14.4661 8.36267 14.6667 8.00001 14.6667C7.63734 14.6667 7.30467 14.4661 7.13467 14.1461L5.49267 11.0494C5.47401 11.0134 5.44668 10.9827 5.41401 10.9587C5.38134 10.9347 5.34334 10.9187 5.30334 10.9121L1.85134 10.3074C1.49401 10.2447 1.20134 9.99008 1.08867 9.64541C0.976675 9.30075 1.06401 8.92208 1.31668 8.66141L3.75401 6.14275C3.78201 6.11341 3.80334 6.07808 3.81601 6.04008C3.82868 6.00141 3.83201 5.96075 3.82667 5.92008L3.33534 2.45008C3.28468 2.09141 3.43601 1.73341 3.72934 1.52008C4.02267 1.30675 4.40934 1.27341 4.73534 1.43275L7.88334 2.97275C7.91934 2.99075 7.95934 3.00008 8.00001 3.00008C8.04067 3.00008 8.08067 2.99075 8.11734 2.97341L11.2653 1.43341C11.5913 1.27408 11.978 1.30808 12.2713 1.52075C12.5647 1.73408 12.716 2.09141 12.6653 2.45075L12.174 5.92075C12.168 5.96075 12.172 6.00208 12.1847 6.04075C12.1973 6.07941 12.218 6.11475 12.2467 6.14341L14.684 8.66208C14.936 8.92275 15.024 9.30141 14.912 9.64608C14.8 9.99075 14.5067 10.2454 14.1493 10.3081L10.6973 10.9127C10.6573 10.9201 10.6193 10.9361 10.5867 10.9594C10.554 10.9834 10.5267 11.0141 10.508 11.0501L8.86534 14.1461Z" fill="#FBC02D"/>
</svg>
