<svg width="20" height="20" viewBox="0 0 20 20" fill="none" xmlns="http://www.w3.org/2000/svg">
<path fill-rule="evenodd" clip-rule="evenodd" d="M0 2.50008C0 2.03984 0.373096 1.66675 0.833333 1.66675H1.48917C2.47189 1.66675 3.32079 2.3527 3.5265 3.31381C3.52648 3.31371 3.52653 3.31392 3.5265 3.31381L5.53226 12.6743C5.61484 13.0588 5.95476 13.3334 6.3475 13.3334H15.8333C16.2936 13.3334 16.6667 13.7065 16.6667 14.1667C16.6667 14.627 16.2936 15.0001 15.8333 15.0001H6.3475C5.16858 15.0001 4.15016 14.1763 3.90274 13.0242L1.89683 3.66302C1.85575 3.47096 1.68633 3.33341 1.48917 3.33341H0.833333C0.373096 3.33341 0 2.96032 0 2.50008Z" fill="#111214"/>
<path d="M15.0833 17.0835C15.0833 17.3596 14.8595 17.5835 14.5833 17.5835C14.3072 17.5835 14.0833 17.3596 14.0833 17.0835C14.0833 16.8074 14.3072 16.5835 14.5833 16.5835C14.8595 16.5835 15.0833 16.8074 15.0833 17.0835Z" fill="white" stroke="#111214" stroke-width="1.5"/>
<path d="M7.08333 18.3335C7.77368 18.3335 8.33333 17.7739 8.33333 17.0835C8.33333 16.3931 7.77368 15.8335 7.08333 15.8335C6.39297 15.8335 5.83333 16.3931 5.83333 17.0835C5.83333 17.7739 6.39297 18.3335 7.08333 18.3335Z" fill="#111214"/>
<path fill-rule="evenodd" clip-rule="evenodd" d="M2.15083 3.33333C2.15083 2.8731 2.52393 2.5 2.98417 2.5H18.3333C18.583 2.5 18.8195 2.61193 18.9778 2.80499C19.1361 2.99806 19.1994 3.25191 19.1505 3.49672L17.9188 9.65672L17.9188 9.65676C17.685 10.8256 16.6587 11.6667 15.4667 11.6667H4.76917C4.30893 11.6667 3.93583 11.2936 3.93583 10.8333C3.93583 10.3731 4.30893 10 4.76917 10H15.4667C15.8646 10 16.2066 9.71941 16.2845 9.32995C16.2845 9.32993 16.2845 9.32992 16.2845 9.3299L17.3169 4.16667H2.98417C2.52393 4.16667 2.15083 3.79357 2.15083 3.33333Z" fill="#111214"/>
</svg>
