<svg width="16" height="16" viewBox="0 0 16 16" fill="none" xmlns="http://www.w3.org/2000/svg">
<path d="M7.99998 1.33301C4.31331 1.33301 1.33331 4.31301 1.33331 7.99967C1.33331 11.6863 4.31331 14.6663 7.99998 14.6663C11.6866 14.6663 14.6666 11.6863 14.6666 7.99967C14.6666 4.31301 11.6866 1.33301 7.99998 1.33301ZM11.138 10.195C11.3986 10.4557 11.3986 10.877 11.138 11.1377C11.008 11.2677 10.8373 11.333 10.6666 11.333C10.496 11.333 10.3253 11.2677 10.1953 11.1377L7.99998 8.94234L5.80465 11.1377C5.67465 11.2677 5.50398 11.333 5.33331 11.333C5.16265 11.333 4.99198 11.2677 4.86198 11.1377C4.60131 10.877 4.60131 10.4557 4.86198 10.195L7.05731 7.99967L4.86198 5.80434C4.60131 5.54367 4.60131 5.12234 4.86198 4.86167C5.12265 4.60101 5.54398 4.60101 5.80465 4.86167L7.99998 7.05701L10.1953 4.86167C10.456 4.60101 10.8773 4.60101 11.138 4.86167C11.3986 5.12234 11.3986 5.54367 11.138 5.80434L8.94265 7.99967L11.138 10.195Z" fill="#A0A0A1"/>
</svg>
