<svg width="14" height="14" viewBox="0 0 14 14" fill="none" xmlns="http://www.w3.org/2000/svg">
<path d="M5.66668 0.333252C2.72905 0.333252 0.333344 2.72896 0.333344 5.66659C0.333344 8.60421 2.72905 10.9999 5.66668 10.9999C6.89603 10.9999 8.02732 10.5769 8.931 9.87362L12.5287 13.4713C12.5901 13.5353 12.6637 13.5863 12.7451 13.6215C12.8265 13.6567 12.9141 13.6753 13.0028 13.6762C13.0915 13.6771 13.1795 13.6603 13.2616 13.6268C13.3437 13.5933 13.4183 13.5437 13.4811 13.481C13.5438 13.4182 13.5934 13.3436 13.6269 13.2615C13.6604 13.1794 13.6772 13.0914 13.6763 13.0027C13.6754 12.914 13.6568 12.8264 13.6216 12.745C13.5864 12.6636 13.5353 12.59 13.4714 12.5286L9.87371 8.93091C10.577 8.02723 11 6.89593 11 5.66659C11 2.72896 8.6043 0.333252 5.66668 0.333252ZM5.66668 1.66659C7.88371 1.66659 9.66668 3.44955 9.66668 5.66659C9.66668 7.88362 7.88371 9.66659 5.66668 9.66659C3.44964 9.66659 1.66668 7.88362 1.66668 5.66659C1.66668 3.44955 3.44964 1.66659 5.66668 1.66659Z" fill="#A0A0A1"/>
</svg>
