<svg width="80" height="80" viewBox="0 0 80 80" fill="none" xmlns="http://www.w3.org/2000/svg">
<rect x="2" y="2" width="76" height="76" rx="38" fill="#F3F3F3"/>
<rect x="2" y="2" width="76" height="76" rx="38" stroke="white" stroke-width="4"/>
<path opacity="0.35" d="M40 40C44.6023 40 48.3333 36.269 48.3333 31.6666C48.3333 27.0643 44.6023 23.3333 40 23.3333C35.3976 23.3333 31.6666 27.0643 31.6666 31.6666C31.6666 36.269 35.3976 40 40 40Z" fill="#707172"/>
<path d="M50 45H30C27.2383 45 25 47.2383 25 50C25 52.7617 27.2383 55 30 55H50C52.7617 55 55 52.7617 55 50C55 47.2383 52.7617 45 50 45Z" fill="#707172"/>
</svg>
