<svg width="24" height="24" viewBox="0 0 24 24" fill="none" xmlns="http://www.w3.org/2000/svg">
<g clip-path="url(#clip0_53_16944)">
<path d="M12 2C6.49 2 2 6.49 2 12V16.5C2 17.33 2.67 18 3.5 18H4.5C5.33 18 6 17.33 6 16.5V13.5C6 12.67 5.33 12 4.5 12H4C4 7.57 7.57 4 12 4C16.43 4 20 7.57 20 12H19.5C18.67 12 18 12.67 18 13.5V16.5C18 17.33 18.67 18 19.5 18H20C20 19.12 19.12 20 18 20H13.73C13.37 19.38 12.71 19 12 19C10.9 19 10 19.9 10 21C10 22.1 10.9 23 12 23C12.71 23 13.37 22.62 13.73 22H18C20.2 22 22 20.2 22 18V12C22 6.49 17.51 2 12 2Z" fill="#111214"/>
</g>
<defs>
<clipPath id="clip0_53_16944">
<rect width="20" height="21" fill="white" transform="translate(2 2)"/>
</clipPath>
</defs>
</svg>
