<svg width="79" height="78" viewBox="0 0 79 78" fill="none" xmlns="http://www.w3.org/2000/svg">
<g clip-path="url(#clip0_316_2045)">
<path d="M74.2343 52.4062H72.4062C69.7128 52.4062 67.5312 50.2247 67.5312 47.5312C67.5312 46.1906 68.0796 44.9719 68.9571 44.0822C69.8468 43.2047 71.0656 42.6562 72.4062 42.6562H72.1503C75.3312 42.6562 78.1709 40.3284 78.4756 37.1597C78.8168 33.5278 75.9649 30.4688 72.4062 30.4688H71.7968C70.1149 30.4688 68.7499 29.1038 68.7499 27.4219C68.7499 26.5809 69.0912 25.8131 69.6396 25.2647C70.1881 24.7162 70.9559 24.375 71.7968 24.375H74.2343C76.879 24.375 78.9753 21.9253 78.4024 19.1953C77.9759 17.2087 76.1234 15.8438 74.0881 15.8438H65.2278C64.009 15.8438 62.8877 15.0028 62.6927 13.8084C62.449 12.2728 63.619 10.9688 65.0937 10.9688H65.5568C67.5921 10.9688 69.4446 9.60375 69.8712 7.61719C70.444 4.88719 68.3477 2.4375 65.7031 2.4375H14.6618C12.6265 2.4375 10.774 3.8025 10.3474 5.78906C9.77463 8.51906 11.8709 10.9688 14.5156 10.9688H19.8659C21.0846 10.9688 22.2059 11.8097 22.4009 13.0041C22.6446 14.5397 21.4746 15.8438 19.9999 15.8438H6.13057C4.09526 15.8438 2.24276 17.2087 1.81619 19.1953C1.24338 21.9253 3.33963 24.375 5.98432 24.375H7.55651C11.2737 24.375 14.5887 27.0441 15.064 30.7247C15.6368 35.1853 12.1634 39 7.81244 39H6.13057C4.09526 39 2.24276 40.365 1.81619 42.3516C1.24338 45.0816 3.33963 47.5312 5.98432 47.5312H19.8659C21.0846 47.5312 22.2059 48.3722 22.4009 49.5666C22.6446 51.1022 21.4746 52.4062 19.9999 52.4062H4.76557C2.12088 52.4062 0.0246319 54.8559 0.597444 57.5859C1.02401 59.5725 2.87651 60.9375 4.91182 60.9375H11.8709C13.7721 60.9375 14.8934 61.7784 15.0884 62.9728C15.2468 63.9478 14.8324 65.8003 14.1378 67.0312H7.81244C6.47182 67.0312 5.25307 67.5797 4.36338 68.4572C3.48588 69.3469 2.93744 70.5656 2.93744 71.9062C2.93744 72.0159 2.93744 72.1134 2.94963 72.2231C3.10807 74.7703 5.22869 76.7812 7.81244 76.7812H23.6562H60.6818C62.7171 76.7812 64.5696 75.4163 64.9962 73.4297C65.569 70.6997 63.4728 68.25 60.8281 68.25H56.5624C55.5509 68.25 54.6368 67.8356 53.9787 67.1775C53.3206 66.5194 52.9062 65.6053 52.9062 64.5938C52.9062 62.5706 54.5393 60.9375 56.5624 60.9375H74.0881C76.1234 60.9375 77.9759 59.5725 78.4024 57.5859C78.9753 54.8559 76.879 52.4062 74.2343 52.4062Z" fill="url(#paint0_radial_316_2045)"/>
<path d="M18.378 71.8258L15.631 72.9568C12.8961 74.2255 10.0394 71.8283 10.8133 68.9142L12.1295 62.89L18.378 71.8258Z" fill="url(#paint1_linear_316_2045)"/>
<path d="M24.1558 69.4517L18.3777 71.8258L12.1279 62.8911L13.8939 54.795L24.1558 69.4517Z" fill="url(#paint2_linear_316_2045)"/>
<path d="M29.9438 67.0849L24.1559 69.4517L13.894 54.795L15.66 46.6989L29.9438 67.0849Z" fill="url(#paint3_linear_316_2045)"/>
<path d="M35.722 64.7107L29.9439 67.0849L15.6602 46.6988L17.4334 38.5941L35.722 64.7107Z" fill="url(#paint4_linear_316_2045)"/>
<path d="M41.501 62.3366L35.7217 64.7107L17.4331 38.5941L18.1619 35.2609C18.5202 33.9227 19.5294 32.9879 20.7006 32.6345L41.501 62.3366Z" fill="url(#paint5_linear_316_2045)"/>
<path d="M47.2719 59.9722L41.5011 62.3366L20.7007 32.6332C21.7805 32.3139 22.9883 32.4846 23.9316 33.2767L35.2099 42.7403L47.2719 59.9722Z" fill="url(#paint6_linear_316_2045)"/>
<path d="M47.4974 59.8748L47.2719 59.9723L35.21 42.7391L48.4492 53.848C50.4285 55.5092 49.9166 58.7547 47.4974 59.8748Z" fill="url(#paint7_linear_316_2045)"/>
<path d="M30.1073 32.0446C30.9202 30.8514 31.6149 29.3036 32.0036 27.8228C32.4058 26.3189 32.602 24.7894 32.5472 23.2806C32.4582 21.7705 32.2693 20.2958 31.7867 18.8723C31.6234 18.1569 31.2553 17.4659 31.014 16.7761C30.7069 16.0924 30.3339 15.4281 30.011 14.7639L29.883 14.5019C28.9909 12.6677 29.755 10.4581 31.5893 9.56596C33.4235 8.67383 35.6331 9.43799 36.5252 11.2722C36.6446 11.5184 36.7385 11.7914 36.8006 12.0473C37.0273 13.0187 37.282 13.9656 37.46 14.9358C37.577 15.9327 37.7964 16.8821 37.8012 17.89C37.9633 19.8632 37.761 21.8729 37.3954 23.7936C36.9981 25.7229 36.2912 27.562 35.3723 29.2415C34.4277 30.938 33.3455 32.4078 31.8293 33.7667C31.3297 34.2152 30.5619 34.1725 30.1134 33.6728C29.7319 33.2487 29.7051 32.6296 30.0134 32.1774L30.1073 32.0446Z" fill="url(#paint8_linear_316_2045)"/>
<path d="M45.711 45.7909C46.5007 43.8531 47.5037 42.2126 48.7773 40.6283C50.0375 39.0597 51.561 37.6484 53.305 36.493C55.0417 35.3413 56.9929 34.3858 59.0599 33.8374C60.0885 33.4913 61.1403 33.356 62.2043 33.1659C63.267 33.005 64.3249 32.9952 65.4047 32.9185C67.4376 32.7734 69.2036 34.303 69.3486 36.3358C69.4936 38.3687 67.9641 40.1347 65.9312 40.2797C65.6838 40.298 65.4413 40.2907 65.2049 40.2602L64.7795 40.2029C64.0288 40.1042 63.2536 39.9153 62.4895 39.8617C61.7302 39.8349 60.9417 39.7361 60.1836 39.8251C58.6321 39.8653 57.1075 40.2285 55.6157 40.7843C54.1228 41.3412 52.6834 42.159 51.372 43.201C50.068 44.215 48.8297 45.5276 47.9132 46.8317L47.8316 46.9487C47.4452 47.4984 46.686 47.63 46.1363 47.2436C45.6646 46.9121 45.5013 46.304 45.711 45.7909Z" fill="url(#paint9_linear_316_2045)"/>
<path d="M58.4189 15.8669C57.9692 14.7347 57.3135 13.6524 57.4159 12.452C57.545 10.9383 58.8601 9.73903 58.9893 8.22534C59.0977 6.95662 58.2726 5.70618 57.138 5.18699C56.0021 4.66781 54.6347 4.82624 53.5488 5.44781C52.4628 6.06937 51.6451 7.1114 51.1161 8.26312C49.8864 10.9419 50.2264 14.3045 51.9668 16.6676C50.72 16.1496 49.355 15.8791 48.0205 16.0595C46.6872 16.2398 45.3904 16.898 44.5666 17.9875C43.488 19.4135 43.6537 21.1258 44.0376 22.7687C44.4045 24.3396 44.9931 25.8838 44.9943 27.4986C44.9968 29.2841 44.2692 31.005 43.254 32.4553C42.2156 33.9385 38.1243 38.4747 37.3333 39.4497C36.953 39.9177 36.9664 40.6185 37.3893 41.067C37.8427 41.5472 38.591 41.5606 39.0603 41.0962C40.775 39.3985 42.5313 37.7361 44.2058 35.997C45.2564 34.9062 46.4568 34.086 47.3222 32.7783C48.1875 31.4706 48.7725 29.9654 48.9882 28.4005C49.1515 27.222 49.1137 26.024 48.9784 24.8442C48.8432 23.6693 48.5312 22.5188 48.3849 21.3525C48.497 21.4939 49.951 22.0508 50.5336 22.2702C51.4245 22.6212 52.3702 22.8345 53.3269 22.843C55.1258 22.8577 57.0405 22.1142 58.063 20.5335C58.7882 19.4122 59.0197 17.968 58.6834 16.6676C58.6175 16.3971 58.5237 16.1301 58.4189 15.8669Z" fill="url(#paint10_linear_316_2045)"/>
<path d="M22.4375 28.0312C24.4568 28.0312 26.0938 26.3943 26.0938 24.375C26.0938 22.3557 24.4568 20.7188 22.4375 20.7188C20.4182 20.7188 18.7812 22.3557 18.7812 24.375C18.7812 26.3943 20.4182 28.0312 22.4375 28.0312Z" fill="url(#paint11_linear_316_2045)"/>
<path d="M62.0469 30.4688C63.7296 30.4688 65.0938 29.1046 65.0938 27.4219C65.0938 25.7391 63.7296 24.375 62.0469 24.375C60.3641 24.375 59 25.7391 59 27.4219C59 29.1046 60.3641 30.4688 62.0469 30.4688Z" fill="url(#paint12_linear_316_2045)"/>
<path d="M59 54.8438C61.0193 54.8438 62.6562 53.2068 62.6562 51.1875C62.6562 49.1682 61.0193 47.5312 59 47.5312C56.9807 47.5312 55.3438 49.1682 55.3438 51.1875C55.3438 53.2068 56.9807 54.8438 59 54.8438Z" fill="url(#paint13_linear_316_2045)"/>
<path d="M43.1562 12.1875C44.5024 12.1875 45.5938 11.0962 45.5938 9.75C45.5938 8.40381 44.5024 7.3125 43.1562 7.3125C41.8101 7.3125 40.7188 8.40381 40.7188 9.75C40.7188 11.0962 41.8101 12.1875 43.1562 12.1875Z" fill="url(#paint14_linear_316_2045)"/>
</g>
<defs>
<radialGradient id="paint0_radial_316_2045" cx="0" cy="0" r="1" gradientUnits="userSpaceOnUse" gradientTransform="translate(40.0459 40.588) scale(35.1756)">
<stop stop-color="#AFEEFF"/>
<stop offset="0.193" stop-color="#BBF1FF"/>
<stop offset="0.703" stop-color="#D7F8FF"/>
<stop offset="1" stop-color="#E1FAFF"/>
</radialGradient>
<linearGradient id="paint1_linear_316_2045" x1="20.3459" y1="61.2913" x2="5.2077" y2="79.3311" gradientUnits="userSpaceOnUse">
<stop stop-color="#FEAA53"/>
<stop offset="0.612" stop-color="#FFCD49"/>
<stop offset="1" stop-color="#FFDE44"/>
</linearGradient>
<linearGradient id="paint2_linear_316_2045" x1="-2.8947" y1="88.2466" x2="13.5675" y2="68.6291" gradientUnits="userSpaceOnUse">
<stop stop-color="#FEC58A"/>
<stop offset="0.612" stop-color="#FFDD83"/>
<stop offset="1" stop-color="#FFE97F"/>
</linearGradient>
<linearGradient id="paint3_linear_316_2045" x1="31.5397" y1="46.4824" x2="7.40771" y2="75.2398" gradientUnits="userSpaceOnUse">
<stop stop-color="#FEAA53"/>
<stop offset="0.612" stop-color="#FFCD49"/>
<stop offset="1" stop-color="#FFDE44"/>
</linearGradient>
<linearGradient id="paint4_linear_316_2045" x1="-2.51659" y1="86.3251" x2="19.8096" y2="59.7197" gradientUnits="userSpaceOnUse">
<stop stop-color="#FEC58A"/>
<stop offset="0.612" stop-color="#FFDD83"/>
<stop offset="1" stop-color="#FFE97F"/>
</linearGradient>
<linearGradient id="paint5_linear_316_2045" x1="42.1946" y1="33.7907" x2="12.1164" y2="69.634" gradientUnits="userSpaceOnUse">
<stop stop-color="#FEAA53"/>
<stop offset="0.612" stop-color="#FFCD49"/>
<stop offset="1" stop-color="#FFDE44"/>
</linearGradient>
<linearGradient id="paint6_linear_316_2045" x1="10.9846" y1="73.715" x2="28.7504" y2="52.544" gradientUnits="userSpaceOnUse">
<stop stop-color="#FEC58A"/>
<stop offset="0.612" stop-color="#FFDD83"/>
<stop offset="1" stop-color="#FFE97F"/>
</linearGradient>
<linearGradient id="paint7_linear_316_2045" x1="46.2074" y1="45.8035" x2="35.2229" y2="58.8934" gradientUnits="userSpaceOnUse">
<stop stop-color="#FEAA53"/>
<stop offset="0.612" stop-color="#FFCD49"/>
<stop offset="1" stop-color="#FFDE44"/>
</linearGradient>
<linearGradient id="paint8_linear_316_2045" x1="33.6843" y1="57.592" x2="33.6843" y2="-23.0356" gradientUnits="userSpaceOnUse">
<stop stop-color="#FF735D"/>
<stop offset="0.137" stop-color="#FE746B"/>
<stop offset="0.486" stop-color="#FC758A"/>
<stop offset="0.783" stop-color="#FA769D"/>
<stop offset="0.989" stop-color="#FA76A4"/>
<stop offset="1" stop-color="#FA76A4"/>
</linearGradient>
<linearGradient id="paint9_linear_316_2045" x1="57.4902" y1="71.9063" x2="57.4902" y2="-15.9047" gradientUnits="userSpaceOnUse">
<stop stop-color="#6DC8EF"/>
<stop offset="1" stop-color="#9EE6FC"/>
</linearGradient>
<linearGradient id="paint10_linear_316_2045" x1="48.029" y1="78.5484" x2="48.029" y2="-16.7651" gradientUnits="userSpaceOnUse">
<stop stop-color="#FEAA53"/>
<stop offset="0.612" stop-color="#FFCD49"/>
<stop offset="1" stop-color="#FFDE44"/>
</linearGradient>
<linearGradient id="paint11_linear_316_2045" x1="22.4375" y1="35.7325" x2="22.4375" y2="28.4566" gradientUnits="userSpaceOnUse">
<stop stop-color="#FEAA53"/>
<stop offset="0.612" stop-color="#FFCD49"/>
<stop offset="1" stop-color="#FFDE44"/>
</linearGradient>
<linearGradient id="paint12_linear_316_2045" x1="62.0469" y1="40.4783" x2="62.0469" y2="6.26681" gradientUnits="userSpaceOnUse">
<stop stop-color="#FF735D"/>
<stop offset="0.137" stop-color="#FE746B"/>
<stop offset="0.486" stop-color="#FC758A"/>
<stop offset="0.783" stop-color="#FA769D"/>
<stop offset="0.989" stop-color="#FA76A4"/>
<stop offset="1" stop-color="#FA76A4"/>
</linearGradient>
<linearGradient id="paint13_linear_316_2045" x1="59" y1="45.5349" x2="59" y2="35.1134" gradientUnits="userSpaceOnUse">
<stop stop-color="#FEAA53"/>
<stop offset="0.612" stop-color="#FFCD49"/>
<stop offset="1" stop-color="#FFDE44"/>
</linearGradient>
<linearGradient id="paint14_linear_316_2045" x1="43.1563" y1="20.096" x2="43.1563" y2="-2.82384" gradientUnits="userSpaceOnUse">
<stop stop-color="#6DC8EF"/>
<stop offset="1" stop-color="#9EE6FC"/>
</linearGradient>
<clipPath id="clip0_316_2045">
<rect width="78" height="78" fill="white" transform="translate(0.5)"/>
</clipPath>
</defs>
</svg>
