<svg width="24" height="24" viewBox="0 0 24 24" fill="none" xmlns="http://www.w3.org/2000/svg">
<path d="M11.9844 1.98633C11.7195 1.99047 11.4671 2.09953 11.2825 2.28957C11.098 2.47962 10.9964 2.73512 11 3V3.05859C6.83868 3.52228 3.52229 6.83868 3.0586 11H3.00001C2.86749 10.9981 2.73593 11.0226 2.61296 11.072C2.48999 11.1214 2.37807 11.1948 2.2837 11.2878C2.18933 11.3809 2.1144 11.4918 2.06325 11.614C2.0121 11.7363 1.98576 11.8675 1.98576 12C1.98576 12.1325 2.0121 12.2637 2.06325 12.386C2.1144 12.5082 2.18933 12.6191 2.2837 12.7122C2.37807 12.8052 2.48999 12.8786 2.61296 12.928C2.73593 12.9774 2.86749 13.0019 3.00001 13H3.0586C3.52229 17.1613 6.83868 20.4777 11 20.9414V21C10.9981 21.1325 11.0226 21.2641 11.072 21.387C11.1214 21.51 11.1948 21.6219 11.2878 21.7163C11.3809 21.8107 11.4918 21.8856 11.614 21.9368C11.7363 21.9879 11.8675 22.0142 12 22.0142C12.1325 22.0142 12.2637 21.9879 12.386 21.9368C12.5082 21.8856 12.6191 21.8107 12.7122 21.7163C12.8052 21.6219 12.8786 21.51 12.928 21.387C12.9774 21.2641 13.0019 21.1325 13 21V20.9414C17.1613 20.4777 20.4777 17.1613 20.9414 13H21C21.1325 13.0019 21.2641 12.9774 21.387 12.928C21.51 12.8786 21.6219 12.8052 21.7163 12.7122C21.8107 12.6191 21.8856 12.5082 21.9368 12.386C21.9879 12.2637 22.0142 12.1325 22.0142 12C22.0142 11.8675 21.9879 11.7363 21.9368 11.614C21.8856 11.4918 21.8107 11.3809 21.7163 11.2878C21.6219 11.1948 21.51 11.1214 21.387 11.072C21.2641 11.0226 21.1325 10.9981 21 11H20.9414C20.4777 6.83868 17.1613 3.52228 13 3.05859V3C13.0018 2.86621 12.9768 2.73341 12.9264 2.60947C12.876 2.48553 12.8012 2.37297 12.7065 2.27845C12.6118 2.18393 12.4991 2.10937 12.375 2.05919C12.251 2.00902 12.1182 1.98424 11.9844 1.98633ZM11.0039 5.07812C11.0235 5.32914 11.137 5.56353 11.3219 5.7345C11.5067 5.90547 11.7492 6.00044 12.001 6.00044C12.2528 6.00044 12.4953 5.90547 12.6801 5.7345C12.8649 5.56353 12.9785 5.32914 12.9981 5.07812C16.072 5.5148 18.486 7.92968 18.9219 11.0039C18.6709 11.0235 18.4365 11.137 18.2655 11.3219C18.0945 11.5067 17.9996 11.7492 17.9996 12.001C17.9996 12.2528 18.0945 12.4953 18.2655 12.6801C18.4365 12.8649 18.6709 12.9785 18.9219 12.998C18.4852 16.072 16.0703 18.486 12.9961 18.9219C12.9796 18.666 12.8654 18.4262 12.6771 18.2521C12.4888 18.0779 12.2408 17.9828 11.9844 17.9863C11.7334 17.9907 11.4932 18.0894 11.3115 18.2627C11.1299 18.436 11.0201 18.6713 11.0039 18.9219C7.92905 18.4859 5.51407 16.071 5.07813 12.9961C5.32915 12.9765 5.56354 12.863 5.73451 12.6781C5.90548 12.4933 6.00045 12.2508 6.00045 11.999C6.00045 11.7472 5.90548 11.5047 5.73451 11.3199C5.56354 11.1351 5.32915 11.0215 5.07813 11.002C5.51481 7.928 7.92969 5.51398 11.0039 5.07812ZM12 8C10.75 8 9.68523 8.50476 9.00196 9.27344C8.31869 10.0421 8.00001 11.0278 8.00001 12C8.00001 12.9722 8.31869 13.9579 9.00196 14.7266C9.68523 15.4952 10.75 16 12 16C13.25 16 14.3148 15.4952 14.9981 14.7266C15.6813 13.9579 16 12.9722 16 12C16 11.0278 15.6813 10.0421 14.9981 9.27344C14.3148 8.50476 13.25 8 12 8ZM12 10C12.75 10 13.1852 10.2452 13.502 10.6016C13.8187 10.9579 14 11.4722 14 12C14 12.5278 13.8187 13.0421 13.502 13.3984C13.1852 13.7548 12.75 14 12 14C11.25 14 10.8148 13.7548 10.4981 13.3984C10.1813 13.0421 10 12.5278 10 12C10 11.4722 10.1813 10.9579 10.4981 10.6016C10.8148 10.2452 11.25 10 12 10Z" fill="#1565C0"/>
</svg>
