<svg width="24" height="28" viewBox="0 0 24 28" fill="none" xmlns="http://www.w3.org/2000/svg">
<path fill-rule="evenodd" clip-rule="evenodd" d="M19.3326 21.7636C22.1717 19.542 24 16.0608 24 12.1472C24 5.4385 18.6274 0 12 0C5.37258 0 0 5.4385 0 12.1472C0 16.0764 1.84289 19.5698 4.70141 21.7901L8.33594 25.0535L11.3323 27.7438C11.7122 28.0849 12.288 28.0851 12.6681 27.7442L19.3359 21.7636H19.3326Z" fill="#FF015C"/>
<path d="M9.51256 17C8.58406 17 8.11981 16.9965 7.19131 16.9929C6.67222 16.9929 6.32495 16.8654 6.15679 16.6174C5.98864 16.3659 5.95574 16.0471 6.05809 15.6575C6.15679 15.2713 6.34688 14.8675 6.62104 14.4531C6.86962 14.074 7.16206 13.7163 7.49471 13.3797C7.82737 13.0468 8.16002 12.774 8.49633 12.5685C8.83264 12.3631 9.14335 12.2568 9.43945 12.2568H11.4865C12.0641 12.2568 12.5759 12.2108 13.0072 12.1187C13.4386 12.0266 13.8115 11.8495 14.1185 11.5944C14.4256 11.3394 14.6888 10.9674 14.9118 10.4786C15.0653 10.1527 15.1384 9.98973 15.2919 9.66383C15.4199 9.38045 15.5003 9.15728 15.5332 9.00142C15.5661 8.84201 15.5259 8.7322 15.4162 8.66844C15.3066 8.60468 15.1055 8.56925 14.8094 8.56925H11.9435C11.7863 8.56925 11.7132 8.49486 11.7278 8.34963C11.7424 8.20439 11.8046 8.0379 11.9179 7.85016C12.0458 7.6447 12.2067 7.45342 12.4041 7.27276C12.6015 7.0921 12.7769 7 12.9341 7H16.6957C17.0503 7 17.3354 7.02125 17.5547 7.06376C17.7777 7.10627 17.9166 7.21608 17.9751 7.3932C18.0336 7.57032 17.9897 7.86079 17.8362 8.26461C17.4706 9.22458 17.2001 9.94368 16.926 10.6628C16.6518 11.3819 16.3813 12.101 16.0157 13.0609C15.6648 13.9819 15.3322 14.7081 14.9958 15.2359C14.6595 15.7673 14.2647 16.1569 13.8041 16.412C13.3472 16.6635 12.7696 16.8264 12.0897 16.8973C11.4061 16.9681 10.5434 17 9.50891 17H9.51256Z" fill="white"/>
</svg>
