<svg width="24" height="24" viewBox="0 0 24 24" fill="none" xmlns="http://www.w3.org/2000/svg">
<path d="M11.3174 16.5879C12.0693 16.5879 12.4131 16.0723 12.4131 15.3848V15.0195C12.4346 13.6016 12.9395 13.0107 14.6582 11.8291C16.5059 10.583 17.6768 9.14355 17.6768 7.07031C17.6768 3.84766 15.0557 2 11.79 2C9.3623 2 7.23535 3.14941 6.32227 5.22266C6.09668 5.72754 6 6.22168 6 6.62988C6 7.24219 6.35449 7.67188 7.00977 7.67188C7.55762 7.67188 7.92285 7.34961 8.08398 6.82324C8.63184 4.78223 9.98535 4.00879 11.7148 4.00879C13.8096 4.00879 15.4531 5.19043 15.4531 7.05957C15.4531 8.5957 14.4971 9.45508 13.1221 10.4219C11.4355 11.5928 10.2002 12.8496 10.2002 14.7402V15.417C10.2002 16.1045 10.5762 16.5879 11.3174 16.5879ZM11.3174 22.4639C12.1768 22.4639 12.8535 21.7764 12.8535 20.9385C12.8535 20.0898 12.1768 19.4131 11.3174 19.4131C10.4795 19.4131 9.79199 20.0898 9.79199 20.9385C9.79199 21.7764 10.4795 22.4639 11.3174 22.4639Z" fill="black"/>
</svg>
