<svg width="20" height="20" viewBox="0 0 20 20" fill="none" xmlns="http://www.w3.org/2000/svg">
<path opacity="0.35" d="M15.8333 6.66667H9.99996V4.16667C9.99996 3.24583 9.25413 2.5 8.33329 2.5H3.33329C2.41246 2.5 1.66663 3.24583 1.66663 4.16667V15.8333C1.66663 16.7542 2.41246 17.5 3.33329 17.5H9.99996V16.6667H15.8333C16.7541 16.6667 17.5 15.9208 17.5 15V8.33333C17.5 7.4125 16.7541 6.66667 15.8333 6.66667Z" fill="#111214"/>
<path d="M5.00004 4.16669H3.33337V5.83335H5.00004V4.16669Z" fill="#111214"/>
<path d="M8.33329 4.16669H6.66663V5.83335H8.33329V4.16669Z" fill="#111214"/>
<path d="M5.00004 7.5H3.33337V9.16667H5.00004V7.5Z" fill="#111214"/>
<path d="M8.33329 7.5H6.66663V9.16667H8.33329V7.5Z" fill="#111214"/>
<path d="M5.00004 10.8334H3.33337V12.5H5.00004V10.8334Z" fill="#111214"/>
<path d="M8.33329 10.8334H6.66663V12.5H8.33329V10.8334Z" fill="#111214"/>
<path d="M5.00004 14.1666H3.33337V15.8333H5.00004V14.1666Z" fill="#111214"/>
<path d="M8.33329 14.1666H6.66663V15.8333H8.33329V14.1666Z" fill="#111214"/>
<path d="M16.6667 5.83337H10V17.5H16.6667C17.5875 17.5 18.3333 16.7542 18.3333 15.8334V7.50004C18.3333 6.57921 17.5875 5.83337 16.6667 5.83337ZM13.3333 12.5H11.6667V10.8334H13.3333V12.5ZM13.3333 9.16671H11.6667V7.50004H13.3333V9.16671ZM16.6667 12.5H15V10.8334H16.6667V12.5ZM13.3333 15.8334H11.6667V14.1667H13.3333V15.8334ZM16.6667 15.8334H15V14.1667H16.6667V15.8334ZM16.6667 9.16671H15V7.50004H16.6667V9.16671Z" fill="#111214"/>
</svg>
