<svg width="21" height="20" viewBox="0 0 21 20" fill="none" xmlns="http://www.w3.org/2000/svg">
<g clip-path="url(#clip0_115_344)">
<path d="M13.0591 4.28147C13.6887 3.58888 14.0406 2.63703 13.9813 1.66666C13.1109 1.66666 12.1035 2.17406 11.4665 2.92221C10.9665 3.54073 10.4332 4.5111 10.6258 5.48147C11.5221 5.59258 12.4924 5.02962 13.0554 4.28147H13.0591Z" fill="#111214"/>
<path d="M15.1887 10.9259C15.1739 10.8037 15.1591 10.6815 15.1554 10.5481C15.1554 8.37777 16.9221 7.39629 16.9961 7.34814C16.0332 5.87036 14.4813 5.69258 13.8998 5.69258C12.5517 5.69258 11.3591 6.44073 10.7184 6.44073C10.0776 6.44073 9.08133 5.65555 7.99244 5.69258C6.57022 5.72221 5.26652 6.56296 4.53689 7.79999C4.01837 8.69258 3.81466 9.73703 3.83318 10.8C3.83318 10.8407 3.84059 10.8852 3.84059 10.9259C3.89985 12.8926 4.66652 14.9222 5.57022 16.2259C6.28133 17.2444 7.08503 18.3333 8.22207 18.3333C9.248 18.3333 9.62578 17.6481 10.9665 17.6481C12.2147 17.6481 12.6036 18.3333 13.685 18.3333C14.8221 18.3333 15.5702 17.3 16.2443 16.2704C17.0961 15.0778 17.3813 13.9407 17.4184 13.8963C17.385 13.8963 15.4591 13.1148 15.185 10.9259H15.1887Z" fill="#111214"/>
</g>
<defs>
<clipPath id="clip0_115_344">
<rect width="13.5889" height="16.6667" fill="white" transform="translate(3.83325 1.66666)"/>
</clipPath>
</defs>
</svg>
