<svg width="12" height="12" viewBox="0 0 12 12" fill="none" xmlns="http://www.w3.org/2000/svg">
<path opacity="0.35" d="M4.5 3.49999H8V2.35299C8 2.04549 8.371 1.89099 8.589 2.10749L10.641 4.14499C10.8385 4.34049 10.8385 4.65999 10.641 4.85549L8.589 6.89299C8.371 7.10899 8 6.95399 8 6.64699V5.49999H4.5C3.9475 5.49999 3.5 5.94749 3.5 6.49999H1.5C1.5 4.84299 2.843 3.49999 4.5 3.49999Z" fill="#414143"/>
<path d="M3.5 6.5V8.9465C3.5 9.4445 3.1595 9.9065 2.668 9.9865C2.0415 10.088 1.5 9.6075 1.5 9V6.5C1.5 4.843 2.843 3.5 4.5 3.5C4.5 3.5 3.5 4.5 3.5 6.5Z" fill="#414143"/>
</svg>
