<svg width="24" height="24" viewBox="0 0 24 24" fill="none" xmlns="http://www.w3.org/2000/svg">
<path d="M18.3535 4.62308C18.0897 4.62932 17.8391 4.73953 17.6562 4.92972L12 10.586L6.34374 4.92972C6.25049 4.83334 6.1388 4.75669 6.01532 4.70435C5.89185 4.65201 5.7591 4.62503 5.62499 4.62503C5.42581 4.62507 5.23119 4.68459 5.06605 4.79595C4.90091 4.9073 4.77278 5.06544 4.69809 5.25008C4.62339 5.43472 4.60553 5.63746 4.64679 5.83231C4.68805 6.02717 4.78655 6.20527 4.92968 6.34378L10.5859 12L4.92968 17.6563C4.83371 17.7484 4.75708 17.8588 4.7043 17.9809C4.65151 18.1031 4.62363 18.2345 4.62227 18.3675C4.62092 18.5006 4.64613 18.6325 4.69642 18.7557C4.74671 18.8789 4.82107 18.9908 4.91515 19.0849C5.00922 19.179 5.12113 19.2533 5.24431 19.3036C5.36748 19.3539 5.49946 19.3791 5.6325 19.3778C5.76554 19.3764 5.89697 19.3485 6.0191 19.2957C6.14123 19.2429 6.2516 19.1663 6.34374 19.0703L12 13.4141L17.6562 19.0703C17.7484 19.1663 17.8588 19.2429 17.9809 19.2957C18.103 19.3485 18.2344 19.3764 18.3675 19.3778C18.5005 19.3791 18.6325 19.3539 18.7557 19.3036C18.8789 19.2533 18.9908 19.179 19.0848 19.0849C19.1789 18.9908 19.2533 18.8789 19.3036 18.7557C19.3539 18.6325 19.3791 18.5006 19.3777 18.3675C19.3764 18.2345 19.3485 18.1031 19.2957 17.9809C19.2429 17.8588 19.1663 17.7484 19.0703 17.6563L13.4141 12L19.0703 6.34378C19.2155 6.20413 19.3152 6.02387 19.3562 5.82662C19.3973 5.62936 19.3778 5.42431 19.3003 5.23832C19.2228 5.05234 19.091 4.89409 18.922 4.78431C18.7531 4.67452 18.5549 4.61833 18.3535 4.62308Z" fill="#111214"/>
</svg>
