<svg width="32" height="32" viewBox="0 0 32 32" fill="none" xmlns="http://www.w3.org/2000/svg">
<path d="M29.1998 29.7992C19.0822 25.6616 5.311 25.2464 2.7998 25.2048V8.39999H29.1998V29.7992Z" fill="#BAE0BD"/>
<path d="M28.7999 8.8V29.208C19.0151 25.3728 6.4911 24.8744 3.1999 24.8096V8.8H28.7999ZM29.5999 8H2.3999V25.6C2.3999 25.6 18.3999 25.6 29.5999 30.4V8Z" fill="#5E9C76"/>
<path d="M30 25.9072C19.8176 23.8216 4.648 23.6208 2 23.6016V6.8H30V25.9072Z" fill="#BAE0BD"/>
<path d="M29.6001 7.19999V25.4192C19.8265 23.5008 5.8657 23.2408 2.4001 23.2056V7.19999H29.6001ZM30.4001 6.39999H1.6001V24C1.6001 24 19.2001 24 30.4001 26.4V6.39999Z" fill="#5E9C76"/>
<path d="M1.2002 5.2H30.8002V22H1.2002V5.2Z" fill="#BAE0BD"/>
<path d="M30.3998 5.6V21.6H1.5998V5.6H30.3998ZM31.1998 4.8H0.799805V22.4H31.1998V4.8Z" fill="#5E9C76"/>
<path d="M16 7.59999C14.4087 7.59999 12.8826 8.23213 11.7574 9.35735C10.6321 10.4826 10 12.0087 10 13.6C10 15.1913 10.6321 16.7174 11.7574 17.8426C12.8826 18.9678 14.4087 19.6 16 19.6C17.5913 19.6 19.1174 18.9678 20.2426 17.8426C21.3679 16.7174 22 15.1913 22 13.6C22 12.0087 21.3679 10.4826 20.2426 9.35735C19.1174 8.23213 17.5913 7.59999 16 7.59999Z" fill="white"/>
<path d="M16.0001 8C19.0881 8 21.6001 10.512 21.6001 13.6C21.6001 16.688 19.0881 19.2 16.0001 19.2C12.9121 19.2 10.4001 16.688 10.4001 13.6C10.4001 10.512 12.9121 8 16.0001 8ZM16.0001 7.2C12.4657 7.2 9.6001 10.0656 9.6001 13.6C9.6001 17.1344 12.4657 20 16.0001 20C19.5345 20 22.4001 17.1344 22.4001 13.6C22.4001 10.0656 19.5345 7.2 16.0001 7.2Z" fill="#5E9C76"/>
<path d="M26.3999 11.6C25.8695 11.6 25.3608 11.8107 24.9857 12.1858C24.6106 12.5609 24.3999 13.0696 24.3999 13.6C24.3999 14.1304 24.6106 14.6391 24.9857 15.0142C25.3608 15.3893 25.8695 15.6 26.3999 15.6C26.9303 15.6 27.439 15.3893 27.8141 15.0142C28.1892 14.6391 28.3999 14.1304 28.3999 13.6C28.3999 13.0696 28.1892 12.5609 27.8141 12.1858C27.439 11.8107 26.9303 11.6 26.3999 11.6Z" fill="white"/>
<path d="M26.4 12C27.2824 12 28 12.7176 28 13.6C28 14.4824 27.2824 15.2 26.4 15.2C25.5176 15.2 24.8 14.4824 24.8 13.6C24.8 12.7176 25.5176 12 26.4 12ZM26.4 11.2C25.0744 11.2 24 12.2744 24 13.6C24 14.9256 25.0744 16 26.4 16C27.7256 16 28.8 14.9256 28.8 13.6C28.8 12.2744 27.7256 11.2 26.4 11.2Z" fill="#5E9C76"/>
<path d="M5.6001 11.6C5.06966 11.6 4.56096 11.8107 4.18588 12.1858C3.81081 12.5609 3.6001 13.0696 3.6001 13.6C3.6001 14.1304 3.81081 14.6391 4.18588 15.0142C4.56096 15.3893 5.06966 15.6 5.6001 15.6C6.13053 15.6 6.63924 15.3893 7.01431 15.0142C7.38938 14.6391 7.6001 14.1304 7.6001 13.6C7.6001 13.0696 7.38938 12.5609 7.01431 12.1858C6.63924 11.8107 6.13053 11.6 5.6001 11.6Z" fill="white"/>
<path d="M5.6002 12C6.4826 12 7.2002 12.7176 7.2002 13.6C7.2002 14.4824 6.4826 15.2 5.6002 15.2C4.7178 15.2 4.0002 14.4824 4.0002 13.6C4.0002 12.7176 4.7178 12 5.6002 12ZM5.6002 11.2C4.2746 11.2 3.2002 12.2744 3.2002 13.6C3.2002 14.9256 4.2746 16 5.6002 16C6.9258 16 8.0002 14.9256 8.0002 13.6C8.0002 12.2744 6.9258 11.2 5.6002 11.2Z" fill="#5E9C76"/>
</svg>
