<svg width="32" height="32" viewBox="0 0 32 32" fill="none" xmlns="http://www.w3.org/2000/svg">
<path d="M3.2002 26C2.097 26 1.2002 25.1024 1.2002 24V8C1.2002 6.8976 2.097 6 3.2002 6H28.8002C29.9034 6 30.8002 6.8976 30.8002 8V24C30.8002 25.1024 29.9034 26 28.8002 26H3.2002Z" fill="#8BB7F0"/>
<path d="M28.7998 6.4C29.6822 6.4 30.3998 7.1176 30.3998 8V24C30.3998 24.8824 29.6822 25.6 28.7998 25.6H3.1998C2.3174 25.6 1.5998 24.8824 1.5998 24V8C1.5998 7.1176 2.3174 6.4 3.1998 6.4H28.7998ZM28.7998 5.6H3.1998C1.8742 5.6 0.799805 6.6744 0.799805 8V24C0.799805 25.3256 1.8742 26.4 3.1998 26.4H28.7998C30.1254 26.4 31.1998 25.3256 31.1998 24V8C31.1998 6.6744 30.1254 5.6 28.7998 5.6Z" fill="#4E7AB5"/>
<path d="M31.1998 9.6H0.799805V12.8H31.1998V9.6Z" fill="#36404D"/>
<path d="M13.6 14.4H4V16H13.6V14.4Z" fill="white"/>
<path d="M22.4 23.2C23.7255 23.2 24.8 22.1255 24.8 20.8C24.8 19.4745 23.7255 18.4 22.4 18.4C21.0745 18.4 20 19.4745 20 20.8C20 22.1255 21.0745 23.2 22.4 23.2Z" fill="#C74343"/>
<path d="M25.6002 23.2C26.9257 23.2 28.0002 22.1255 28.0002 20.8C28.0002 19.4745 26.9257 18.4 25.6002 18.4C24.2747 18.4 23.2002 19.4745 23.2002 20.8C23.2002 22.1255 24.2747 23.2 25.6002 23.2Z" fill="#FFEEA3"/>
<path d="M24.0002 22.5768C24.442 22.5768 24.8002 21.7813 24.8002 20.8C24.8002 19.8187 24.442 19.0232 24.0002 19.0232C23.5584 19.0232 23.2002 19.8187 23.2002 20.8C23.2002 21.7813 23.5584 22.5768 24.0002 22.5768Z" fill="#FFC49C"/>
</svg>
