<svg width="12" height="12" viewBox="0 0 12 12" fill="none" xmlns="http://www.w3.org/2000/svg">
<path d="M2.75 10.5C3.44036 10.5 4 9.94036 4 9.25C4 8.55964 3.44036 8 2.75 8C2.05964 8 1.5 8.55964 1.5 9.25C1.5 9.94036 2.05964 10.5 2.75 10.5Z" fill="#292A2B"/>
<path d="M9.25 10.5C9.94036 10.5 10.5 9.94036 10.5 9.25C10.5 8.55964 9.94036 8 9.25 8C8.55964 8 8 8.55964 8 9.25C8 9.94036 8.55964 10.5 9.25 10.5Z" fill="#292A2B"/>
<path opacity="0.35" d="M9.5 5.5L8.1005 3.7505C7.721 3.276 7.1465 3 6.539 3H3.8655C3.33 3 2.835 3.2855 2.567 3.7495L1.555 5.5L0.8415 5.6145C0.3565 5.6925 0 6.111 0 6.602V8C0 8.8285 0.6715 9.5 1.5 9.5H10.5C11.3285 9.5 12 8.8285 12 8V7.1075C12 6.337 11.416 5.6915 10.6495 5.615L9.5 5.5Z" fill="#292A2B"/>
</svg>
