<svg width="32" height="32" viewBox="0 0 32 32" fill="none" xmlns="http://www.w3.org/2000/svg">
<path d="M3.2002 26C2.097 26 1.2002 25.1024 1.2002 24V8C1.2002 6.8976 2.097 6 3.2002 6H28.8002C29.9034 6 30.8002 6.8976 30.8002 8V24C30.8002 25.1024 29.9034 26 28.8002 26H3.2002Z" fill="#F78F8F"/>
<path d="M28.7998 6.4C29.6822 6.4 30.3998 7.1176 30.3998 8V24C30.3998 24.8824 29.6822 25.6 28.7998 25.6H3.1998C2.3174 25.6 1.5998 24.8824 1.5998 24V8C1.5998 7.1176 2.3174 6.4 3.1998 6.4H28.7998ZM28.7998 5.6H3.1998C1.8742 5.6 0.799805 6.6744 0.799805 8V24C0.799805 25.3256 1.8742 26.4 3.1998 26.4H28.7998C30.1254 26.4 31.1998 25.3256 31.1998 24V8C31.1998 6.6744 30.1254 5.6 28.7998 5.6Z" fill="#C74343"/>
<path d="M0.799805 9.6H31.1998V12.8H0.799805V9.6Z" fill="#36404D"/>
<path d="M4 14.4H13.6V16H4V14.4Z" fill="white"/>
</svg>
