<svg width="17" height="20" viewBox="0 0 17 20" fill="none" xmlns="http://www.w3.org/2000/svg">
<path d="M6.99937 0.833496C4.07587 0.833496 1.66734 3.16214 1.66734 6.04183C1.66734 6.19708 1.69213 6.333 1.7064 6.47803C0.80904 7.29132 0.166687 8.39206 0.166687 9.68766C0.166687 12.1643 2.24123 14.1668 4.75002 14.1668H7.66669V16.3218L6.58921 15.2443C6.51243 15.1643 6.42045 15.1005 6.31868 15.0565C6.2169 15.0125 6.10738 14.9893 5.99651 14.9881C5.88564 14.987 5.77566 15.008 5.67302 15.0499C5.57037 15.0918 5.47711 15.1538 5.39872 15.2322C5.32032 15.3106 5.25835 15.4038 5.21644 15.5065C5.17453 15.6091 5.15353 15.7191 5.15466 15.83C5.15578 15.9409 5.17902 16.0504 5.22301 16.1522C5.267 16.2539 5.33085 16.3459 5.41083 16.4227L7.83759 18.8494C7.91514 18.9512 8.01509 19.0338 8.12969 19.0907C8.24428 19.1476 8.37045 19.1774 8.4984 19.1777C8.62636 19.178 8.75267 19.1489 8.86754 19.0925C8.98242 19.0361 9.08277 18.9541 9.16083 18.8527C9.16192 18.8511 9.163 18.8494 9.16408 18.8478L11.5892 16.4227C11.6692 16.3459 11.733 16.2539 11.777 16.1522C11.821 16.0504 11.8443 15.9408 11.8454 15.83C11.8465 15.7191 11.8255 15.6091 11.7836 15.5065C11.7417 15.4038 11.6797 15.3106 11.6013 15.2322C11.5229 15.1538 11.4297 15.0918 11.327 15.0499C11.2244 15.008 11.1144 14.987 11.0035 14.9881C10.8927 14.9893 10.7831 15.0125 10.6814 15.0565C10.5796 15.1005 10.4876 15.1643 10.4108 15.2443L9.33335 16.3218V14.1668H12.25C14.7588 14.1668 16.8334 12.1643 16.8334 9.68766C16.8334 8.08069 15.8712 6.78363 14.5742 5.99463C14.5465 4.34633 13.1632 3.021 11.4997 3.021C11.3914 3.021 11.3096 3.04872 11.21 3.06006C10.2366 1.75812 8.76032 0.833496 6.99937 0.833496ZM6.99937 2.50016C8.39768 2.50016 9.59699 3.25228 10.2155 4.34261C10.3055 4.50115 10.4449 4.62583 10.6124 4.69756C10.78 4.76929 10.9665 4.78411 11.1433 4.73975C11.2822 4.70502 11.3961 4.68766 11.4997 4.68766C12.3044 4.68766 12.9173 5.29671 12.9173 6.04183C12.9173 6.0446 12.9092 6.10147 12.8929 6.22738C12.8697 6.40883 12.9069 6.59288 12.9987 6.75113C13.0904 6.90938 13.2317 7.03303 13.4007 7.10303C14.4468 7.53757 15.1667 8.5276 15.1667 9.68766C15.1667 11.2376 13.8829 12.5002 12.25 12.5002H9.33335V10.0002C9.33492 9.88974 9.31452 9.7801 9.27334 9.67763C9.23216 9.57515 9.17102 9.48188 9.09349 9.40324C9.01595 9.3246 8.92356 9.26216 8.82168 9.21953C8.7198 9.17691 8.61046 9.15496 8.50002 9.15496C8.38958 9.15496 8.28025 9.17691 8.17837 9.21953C8.07648 9.26216 7.98409 9.3246 7.90655 9.40324C7.82902 9.48188 7.76788 9.57515 7.7267 9.67763C7.68553 9.7801 7.66513 9.88974 7.66669 10.0002V12.5002H4.75002C3.11715 12.5002 1.83335 11.2376 1.83335 9.68766C1.83335 8.75372 2.30368 7.9376 3.04104 7.42041C3.16961 7.33018 3.27007 7.20545 3.33083 7.0606C3.3916 6.91575 3.41019 6.75668 3.38446 6.60172C3.35215 6.40643 3.33401 6.22085 3.334 6.04183C3.334 4.08819 4.9512 2.50016 6.99937 2.50016Z" fill="white"/>
</svg>
