<svg width="24" height="24" viewBox="0 0 24 24" fill="none" xmlns="http://www.w3.org/2000/svg">
<g clip-path="url(#clip0_62_496)">
<path d="M12 3C4.23809 3 0.105465 11.5527 0.105465 11.5527C0.036028 11.6916 -0.00012207 11.8447 -0.00012207 12C-0.00012207 12.1553 0.036028 12.3084 0.105465 12.4473C0.105465 12.4473 4.23809 21 12 21C19.7619 21 23.8945 12.4473 23.8945 12.4473C23.964 12.3084 24.0001 12.1553 24.0001 12C24.0001 11.8447 23.964 11.6916 23.8945 11.5527C23.8945 11.5527 19.7619 3 12 3ZM12 5C17.8634 5 21.3477 11.2096 21.7793 12C21.3477 12.7904 17.8634 19 12 19C6.13661 19 2.65233 12.7904 2.2207 12C2.65233 11.2096 6.13661 5 12 5ZM12 7C10.4167 7 9.10189 7.62976 8.25195 8.58594C7.40201 9.54212 7 10.7778 7 12C7 13.2222 7.40201 14.4579 8.25195 15.4141C9.10189 16.3702 10.4167 17 12 17C13.5833 17 14.8981 16.3702 15.748 15.4141C16.598 14.4579 17 13.2222 17 12C17 10.7778 16.598 9.54212 15.748 8.58594C14.8981 7.62976 13.5833 7 12 7ZM12 9C13.0833 9 13.7686 9.37024 14.2519 9.91406C14.7353 10.4579 15 11.2222 15 12C15 12.7778 14.7353 13.5421 14.2519 14.0859C13.7686 14.6298 13.0833 15 12 15C10.9167 15 10.2314 14.6298 9.74804 14.0859C9.26465 13.5421 9 12.7778 9 12C9 11.2222 9.26465 10.4579 9.74804 9.91406C10.2314 9.37024 10.9167 9 12 9Z" fill="black"/>
</g>
<defs>
<clipPath id="clip0_62_496">
<rect width="24" height="24" fill="white"/>
</clipPath>
</defs>
</svg>
