<svg width="24" height="24" viewBox="0 0 24 24" fill="none" xmlns="http://www.w3.org/2000/svg">
<g clip-path="url(#clip0_62_495)">
<path d="M1.99023 0.990234C1.7913 0.990287 1.5969 1.04967 1.43189 1.16078C1.26688 1.27189 1.13876 1.42969 1.0639 1.614C0.989046 1.79832 0.970857 2.00077 1.01166 2.19547C1.05246 2.39017 1.15041 2.56828 1.29297 2.70703L4.61133 6.02539C1.70589 8.499 0.107422 11.5508 0.107422 11.5508C0.0373642 11.6898 0.000707654 11.8432 0.000368585 11.9988C2.95155e-05 12.1544 0.0360172 12.308 0.105468 12.4473C0.105468 12.4473 4.2381 21 12 21C14.2407 21 16.131 20.1903 17.75 19.1641L21.293 22.707C21.3851 22.803 21.4955 22.8796 21.6176 22.9324C21.7397 22.9852 21.8712 23.0131 22.0042 23.0144C22.1373 23.0158 22.2692 22.9906 22.3924 22.9403C22.5156 22.89 22.6275 22.8157 22.7216 22.7216C22.8157 22.6275 22.89 22.5156 22.9403 22.3924C22.9906 22.2692 23.0158 22.1373 23.0144 22.0042C23.0131 21.8712 22.9852 21.7397 22.9324 21.6176C22.8796 21.4955 22.803 21.3851 22.707 21.293L18.7266 17.3125C18.6774 17.25 18.6211 17.1936 18.5586 17.1445L15.6582 14.2441C15.5912 14.1484 15.5079 14.0651 15.4121 13.998L9.97266 8.55859C9.91862 8.48874 9.85557 8.42635 9.78516 8.37305L6.87305 5.46094C6.86982 5.45701 6.86657 5.4531 6.86328 5.44922C6.81271 5.38435 6.75432 5.32596 6.68945 5.27539L2.70703 1.29297C2.61384 1.19717 2.5024 1.12103 2.37928 1.06903C2.25617 1.01704 2.12388 0.990242 1.99023 0.990234ZM12 3C11.1724 3 10.3996 3.11715 9.67969 3.28711C9.55181 3.31736 9.43115 3.37251 9.32459 3.44939C9.21803 3.52628 9.12766 3.62341 9.05864 3.73522C8.98962 3.84704 8.9433 3.97135 8.92232 4.10107C8.90135 4.23079 8.90613 4.36337 8.9364 4.49124C8.96667 4.61911 9.02183 4.73976 9.09873 4.84631C9.17563 4.95287 9.27277 5.04322 9.38459 5.11223C9.49642 5.18124 9.62074 5.22754 9.75046 5.2485C9.88018 5.26946 10.0128 5.26466 10.1406 5.23438C10.7508 5.09033 11.3616 5 12 5C17.8766 5 21.3735 11.2497 21.791 12.0156C21.6095 12.3558 21.2017 13.1918 20.0703 14.5508C19.9833 14.6513 19.9172 14.7682 19.8759 14.8946C19.8346 15.021 19.8189 15.1543 19.8297 15.2868C19.8406 15.4193 19.8777 15.5484 19.939 15.6664C20.0003 15.7843 20.0845 15.8889 20.1867 15.974C20.2889 16.059 20.4071 16.1229 20.5342 16.1617C20.6614 16.2006 20.795 16.2137 20.9273 16.2003C21.0596 16.1869 21.1879 16.1472 21.3046 16.0837C21.4214 16.0201 21.5244 15.9339 21.6074 15.8301C23.0928 14.046 23.8945 12.4492 23.8945 12.4492C23.9643 12.3101 24.0006 12.1566 24.0006 12.001C24.0006 11.8453 23.9643 11.6919 23.8945 11.5527C23.8945 11.5527 19.7619 3 12 3ZM6.06445 7.47852L7.83203 9.24609C7.30852 10.0377 7 10.9855 7 12C7 14.7495 9.25048 17 12 17C13.0145 17 13.9623 16.6915 14.7539 16.168L16.2891 17.7031C15.0155 18.4387 13.6238 19 12 19C6.11017 19 2.60059 12.71 2.19727 11.9688C2.52863 11.366 3.83509 9.35198 6.06445 7.47852ZM9.29883 10.7129L13.2871 14.7012C12.8976 14.8875 12.4657 15 12 15C10.3315 15 9 13.6685 9 12C9 11.5343 9.11254 11.1024 9.29883 10.7129Z" fill="black"/>
</g>
<defs>
<clipPath id="clip0_62_495">
<rect width="24" height="24" fill="white"/>
</clipPath>
</defs>
</svg>
