<svg width="20" height="20" viewBox="0 0 20 20" fill="none" xmlns="http://www.w3.org/2000/svg">
<path d="M2.49993 3.33334C2.27893 3.33337 2.06698 3.42117 1.9107 3.57745C1.75443 3.73372 1.66662 3.94567 1.6666 4.16668V5.95867C1.65313 6.04441 1.65313 6.13172 1.6666 6.21746V15.8333C1.66662 16.0543 1.75443 16.2663 1.9107 16.4226C2.06698 16.5788 2.27893 16.6667 2.49993 16.6667H17.4999C17.7209 16.6667 17.9329 16.5788 18.0892 16.4226C18.2454 16.2663 18.3332 16.0543 18.3333 15.8333V6.25489C18.3562 6.14376 18.3562 6.02911 18.3333 5.91798V4.16668C18.3332 3.94567 18.2454 3.73372 18.0892 3.57745C17.9329 3.42117 17.7209 3.33337 17.4999 3.33334H2.49993ZM3.33327 5.00001H16.6666V5.63803L9.99993 9.84702L3.33327 5.63803V5.00001ZM3.33327 7.60906L9.5556 11.5381C9.68864 11.6219 9.84268 11.6664 9.99993 11.6664C10.1572 11.6664 10.3112 11.6219 10.4443 11.5381L16.6666 7.60906V15H3.33327V7.60906Z" fill="#FF015C"/>
</svg>
