<svg width="79" height="78" viewBox="0 0 79 78" fill="none" xmlns="http://www.w3.org/2000/svg">
<g clip-path="url(#clip0_467_1847)">
<path d="M7.20312 4.875C4.17453 4.875 1.71875 7.33078 1.71875 10.3594C1.71875 13.388 4.17453 15.8438 7.20312 15.8438C10.2317 15.8438 12.6875 13.388 12.6875 10.3594C12.6875 7.33078 10.2317 4.875 7.20312 4.875Z" fill="url(#paint0_radial_467_1847)"/>
<path d="M78.5 49.9688C78.5 53.3337 75.7712 56.0625 72.4062 56.0625H66.3125C62.9475 56.0625 60.2188 58.7901 60.2188 62.1562C60.2188 65.5224 62.9463 68.25 66.3125 68.25H70.6573C72.9912 68.25 74.8438 70.1025 74.8438 72.3877V72.5156C74.8438 74.8715 72.934 76.7812 70.5781 76.7812H10.8594C8.51206 76.7812 6.60594 74.8849 6.59375 72.5363V72.5156C6.58156 70.1634 8.48647 68.25 10.8387 68.25H15.125C17.8172 68.25 20 66.0672 20 63.375C20 60.6828 17.8172 58.5 15.125 58.5H6.59375C3.22878 58.5 0.5 55.7712 0.5 52.4062C0.5 49.0413 3.22878 46.3125 6.59375 46.3125H7.8125C10.5047 46.3125 12.6875 44.1297 12.6875 41.4375C12.6875 38.7453 10.5047 36.5625 7.8125 36.5625H7.20312C3.50056 36.5625 0.5 33.5619 0.5 29.8594C0.5 26.1568 3.50056 23.1562 7.20312 23.1562H23.6562C25.6757 23.1562 27.3125 21.5195 27.3125 19.5C27.3125 17.4805 25.6757 15.8438 23.6562 15.8438H21.8281C18.7995 15.8438 16.3438 13.388 16.3438 10.3594C16.3438 7.33078 18.7995 4.875 21.8281 4.875H40.7188H67.5312C70.2235 4.875 72.4062 7.05778 72.4062 9.75C72.4062 12.4422 70.2235 14.625 67.5312 14.625H65.7031C63.3473 14.625 61.4375 16.5348 61.4375 18.8906C61.4375 21.2465 63.3473 23.1562 65.7031 23.1562H73.625C76.3172 23.1562 78.5 25.339 78.5 28.0312C78.5 30.7235 76.3172 32.9062 73.625 32.9062H71.7969C68.7683 32.9062 66.3125 35.362 66.3125 38.3906C66.3125 41.4192 68.7683 43.875 71.7969 43.875H72.4062C75.7712 43.875 78.5 46.6038 78.5 49.9688Z" fill="url(#paint1_radial_467_1847)"/>
<path d="M10.2938 58.7425L35.8474 14.3008C36.5993 12.9931 37.9924 12.1875 39.5 12.1875C41.0075 12.1875 42.4006 12.9931 43.1525 14.3008L68.7061 58.7425C69.4946 60.1136 69.5434 61.7882 68.8365 63.2032L68.8353 63.2056C68.0358 64.8034 66.4026 65.8125 64.616 65.8125H14.384C12.5973 65.8125 10.9641 64.8034 10.1659 63.2056L10.1646 63.2032C9.45655 61.7882 9.5053 60.1136 10.2938 58.7425Z" fill="url(#paint2_linear_467_1847)"/>
<path d="M41.9375 57.2812C41.9375 58.628 40.8467 59.7188 39.5 59.7188C38.1533 59.7188 37.0625 58.628 37.0625 57.2812C37.0625 55.9345 38.1533 54.8438 39.5 54.8438C40.8467 54.8438 41.9375 55.9345 41.9375 57.2812ZM39.5 29.25C37.4805 29.25 35.8438 30.8868 35.8438 32.9062L36.9004 48.7549C36.9918 50.1235 38.1289 51.1875 39.5 51.1875C40.8711 51.1875 42.0082 50.1235 42.0996 48.7549L43.1562 32.9062C43.1562 30.8868 41.5195 29.25 39.5 29.25Z" fill="white"/>
</g>
<defs>
<radialGradient id="paint0_radial_467_1847" cx="0" cy="0" r="1" gradientUnits="userSpaceOnUse" gradientTransform="translate(44.375 40.2188) scale(32.7539)">
<stop stop-color="#AFEEFF"/>
<stop offset="0.193" stop-color="#BBF1FF"/>
<stop offset="0.703" stop-color="#D7F8FF"/>
<stop offset="1" stop-color="#E1FAFF"/>
</radialGradient>
<radialGradient id="paint1_radial_467_1847" cx="0" cy="0" r="1" gradientUnits="userSpaceOnUse" gradientTransform="translate(39.5 40.8281) scale(37.507 37.507)">
<stop stop-color="#AFEEFF"/>
<stop offset="0.193" stop-color="#BBF1FF"/>
<stop offset="0.703" stop-color="#D7F8FF"/>
<stop offset="1" stop-color="#E1FAFF"/>
</radialGradient>
<linearGradient id="paint2_linear_467_1847" x1="39.5" y1="54.0747" x2="39.5" y2="-27.3804" gradientUnits="userSpaceOnUse">
<stop stop-color="#FF7774"/>
<stop offset="1" stop-color="white"/>
</linearGradient>
<clipPath id="clip0_467_1847">
<rect width="78" height="78" fill="white" transform="translate(0.5)"/>
</clipPath>
</defs>
</svg>
