<svg width="20" height="20" viewBox="0 0 20 20" fill="none" xmlns="http://www.w3.org/2000/svg">
<g clip-path="url(#clip0_115_333)">
<path d="M18.1709 8.36666H17.5001V8.33332H10.0001V11.6667H14.7084C14.0209 13.6083 12.1751 15 10.0001 15C7.23758 15 5.00008 12.7625 5.00008 9.99999C5.00008 7.23749 7.23758 4.99999 10.0001 4.99999C11.2751 4.99999 12.4334 5.47916 13.3167 6.26666L15.6751 3.90832C14.1876 2.52082 12.1959 1.66666 10.0001 1.66666C5.39591 1.66666 1.66675 5.39582 1.66675 9.99999C1.66675 14.6042 5.39591 18.3333 10.0001 18.3333C14.6042 18.3333 18.3334 14.6 18.3334 9.99999C18.3334 9.44166 18.2751 8.89582 18.1709 8.36666Z" fill="#FBC02D"/>
<path d="M2.62915 6.12082L5.36665 8.12916C6.10832 6.29582 7.89998 4.99999 9.99998 4.99999C11.275 4.99999 12.4333 5.47916 13.3167 6.26666L15.675 3.90832C14.1875 2.52082 12.1958 1.66666 9.99998 1.66666C6.79998 1.66666 4.02498 3.47499 2.62915 6.12082Z" fill="#E53935"/>
<path d="M10.0002 18.3333C12.1543 18.3333 14.1085 17.5083 15.5877 16.1708L13.0085 13.9875C12.171 14.6208 11.1335 15 10.0002 15C7.8335 15 5.99183 13.6167 5.30016 11.6875L2.5835 13.7833C3.96266 16.4833 6.76266 18.3333 10.0002 18.3333Z" fill="#4CAF50"/>
<path d="M18.1708 8.36665L18.1625 8.33331H10V11.6666H14.7083C14.3792 12.6 13.7792 13.4041 13.0042 13.9875L15.5833 16.1708C15.4 16.3375 18.3292 14.1666 18.3292 9.99998C18.3292 9.44165 18.2708 8.89581 18.1667 8.36665H18.1708Z" fill="#1565C0"/>
</g>
<defs>
<clipPath id="clip0_115_333">
<rect width="16.6667" height="16.6667" fill="white" transform="translate(1.66675 1.66666)"/>
</clipPath>
</defs>
</svg>
