<svg width="24" height="24" viewBox="0 0 24 24" fill="none" xmlns="http://www.w3.org/2000/svg">
<path d="M11.9844 1.98645C11.7195 1.99059 11.4671 2.09965 11.2825 2.28969C11.098 2.47974 10.9964 2.73524 11 3.00012V16.0001C10.9981 16.1326 11.0226 16.2642 11.072 16.3872C11.1214 16.5101 11.1948 16.6221 11.2878 16.7164C11.3809 16.8108 11.4918 16.8857 11.614 16.9369C11.7363 16.988 11.8675 17.0144 12 17.0144C12.1325 17.0144 12.2637 16.988 12.386 16.9369C12.5082 16.8857 12.6191 16.8108 12.7122 16.7164C12.8052 16.6221 12.8786 16.5101 12.928 16.3872C12.9774 16.2642 13.0019 16.1326 13 16.0001V3.00012C13.0018 2.86633 12.9768 2.73354 12.9264 2.6096C12.876 2.48566 12.8012 2.37309 12.7065 2.27857C12.6118 2.18405 12.4991 2.10949 12.375 2.05932C12.251 2.00914 12.1182 1.98436 11.9844 1.98645ZM12 20.0001C11.7348 20.0001 11.4804 20.1055 11.2929 20.293C11.1054 20.4806 11 20.7349 11 21.0001C11 21.2653 11.1054 21.5197 11.2929 21.7072C11.4804 21.8948 11.7348 22.0001 12 22.0001C12.2652 22.0001 12.5196 21.8948 12.7071 21.7072C12.8946 21.5197 13 21.2653 13 21.0001C13 20.7349 12.8946 20.4806 12.7071 20.293C12.5196 20.1055 12.2652 20.0001 12 20.0001Z" fill="#111214"/>
</svg>
