<svg width="24" height="24" viewBox="0 0 24 24" fill="none" xmlns="http://www.w3.org/2000/svg">
<path d="M2.40002 19.5C1.56002 19.5 0.900024 18.84 0.900024 18V6C0.900024 5.16 1.56002 4.5 2.40002 4.5H21.6C22.44 4.5 23.1 5.16 23.1 6V18C23.1 18.84 22.44 19.5 21.6 19.5H2.40002Z" fill="#C2E8FF"/>
<path d="M21.6 4.80001C22.26 4.80001 22.8 5.34001 22.8 6.00001V18C22.8 18.66 22.26 19.2 21.6 19.2H2.39998C1.73998 19.2 1.19998 18.66 1.19998 18V6.00001C1.19998 5.34001 1.73998 4.80001 2.39998 4.80001H21.6ZM21.6 4.20001H2.39998C1.37998 4.20001 0.599976 4.98001 0.599976 6.00001V18C0.599976 19.02 1.37998 19.8 2.39998 19.8H21.6C22.62 19.8 23.4 19.02 23.4 18V6.00001C23.4 4.98001 22.62 4.20001 21.6 4.20001Z" fill="#7496C4"/>
<path d="M21 15H15V15.6H21V15Z" fill="#7496C4"/>
<path d="M18.6 16.8H15V17.4H18.6V16.8Z" fill="#7496C4"/>
<path d="M8.09994 15.12L4.91994 16.8L5.51994 13.26L2.93994 10.8L6.47994 10.26L8.09994 7.08002L9.65994 10.26L13.1999 10.8L10.6799 13.26L11.2199 16.8L8.09994 15.12Z" fill="#FFEC73"/>
<path d="M4.50003 17.34L5.16003 13.38L2.28003 10.56L6.24003 9.95999L8.04003 6.35999L9.84003 9.95999L13.8 10.56L10.92 13.38L11.58 17.34L8.04003 15.48L4.50003 17.34ZM8.10003 14.82L10.86 16.26L10.32 13.2L12.54 11.04L9.42003 10.56L8.04003 7.73998L6.66003 10.56L3.60003 10.98L5.82003 13.2L5.28003 16.26L8.10003 14.82Z" fill="#FBC02D"/>
</svg>
