<svg width="24" height="24" viewBox="0 0 24 24" fill="none" xmlns="http://www.w3.org/2000/svg">
<path d="M11.9844 0.986328C11.7195 0.990468 11.4671 1.09953 11.2825 1.28957C11.098 1.47962 10.9964 1.73512 11 2V3.20312C7.08462 3.71801 4.00001 6.94786 4.00001 11V14C4.00001 16.5556 2.29298 18.293 2.29298 18.293C2.15321 18.4328 2.05804 18.611 2.01949 18.805C1.98095 18.9989 2.00076 19.1999 2.07643 19.3826C2.15209 19.5653 2.28022 19.7214 2.44461 19.8313C2.609 19.9412 2.80228 19.9999 3.00001 20H9.00001C9.00001 21.645 10.355 23 12 23C13.645 23 15 21.645 15 20H21C21.1978 19.9999 21.391 19.9412 21.5554 19.8313C21.7198 19.7214 21.8479 19.5653 21.9236 19.3826C21.9993 19.1999 22.0191 18.9989 21.9805 18.805C21.942 18.611 21.8468 18.4328 21.707 18.293C21.707 18.293 20 16.5556 20 14V11C20 6.94786 16.9154 3.71801 13 3.20312V2C13.0018 1.86621 12.9768 1.73341 12.9264 1.60947C12.876 1.48553 12.8012 1.37297 12.7065 1.27845C12.6118 1.18393 12.4991 1.10937 12.3751 1.05919C12.251 1.00902 12.1182 0.984238 11.9844 0.986328ZM11.9453 5.01172C11.9824 5.01379 12.0196 5.01379 12.0567 5.01172C15.3541 5.04385 18 7.69459 18 11V14C18 15.6532 18.5346 17.0108 19.084 18H4.91603C5.46539 17.0108 6.00001 15.6532 6.00001 14V11C6.00001 7.69392 8.6469 5.0428 11.9453 5.01172ZM11 20H13C13 20.565 12.565 21 12 21C11.435 21 11 20.565 11 20Z" fill="#111214"/>
</svg>
