<svg width="20" height="20" viewBox="0 0 20 20" fill="none" xmlns="http://www.w3.org/2000/svg">
<path d="M14.9167 3.41669C14.6667 3.41669 14.4167 3.33335 14.1667 3.33335H7.50004C6.08337 3.33335 5.00004 4.41669 5.00004 5.83335V15.8334C5.00004 16.0834 5.08337 16.3334 5.08337 16.5834C4.08337 16.25 3.33337 15.3334 3.33337 14.1667V4.16669C3.33337 2.75002 4.41671 1.66669 5.83337 1.66669H12.5C13.6667 1.66669 14.5834 2.41669 14.9167 3.41669Z" fill="#111214"/>
<path opacity="0.35" d="M4.99996 15.8333L4.16663 5.83333C4.16663 4.41667 6.08329 2.5 7.49996 2.5L14.1666 3.33333C15.5833 3.33333 16.6666 4.41667 16.6666 5.83333V15.8333C16.6666 17.25 15.5833 18.3333 14.1666 18.3333H7.49996C6.08329 18.3333 4.99996 17.25 4.99996 15.8333Z" fill="#111214"/>
<path d="M13.3333 8.33335H8.33333C7.83333 8.33335 7.5 8.00002 7.5 7.50002C7.5 7.00002 7.83333 6.66669 8.33333 6.66669H13.3333C13.8333 6.66669 14.1667 7.00002 14.1667 7.50002C14.1667 8.00002 13.8333 8.33335 13.3333 8.33335Z" fill="#111214"/>
<path d="M13.3333 11.6667H8.33333C7.83333 11.6667 7.5 11.3333 7.5 10.8333C7.5 10.3333 7.83333 10 8.33333 10H13.3333C13.8333 10 14.1667 10.3333 14.1667 10.8333C14.1667 11.3333 13.8333 11.6667 13.3333 11.6667Z" fill="#111214"/>
<path d="M13.3333 15H8.33333C7.83333 15 7.5 14.6666 7.5 14.1666C7.5 13.6666 7.83333 13.3333 8.33333 13.3333H13.3333C13.8333 13.3333 14.1667 13.6666 14.1667 14.1666C14.1667 14.6666 13.8333 15 13.3333 15Z" fill="#111214"/>
</svg>
