<svg width="20" height="20" viewBox="0 0 20 20" fill="none" xmlns="http://www.w3.org/2000/svg">
<path d="M10 1.66666C7.24865 1.66666 5 3.9153 5 6.66666V7.49999H4.58333C3.44245 7.49999 2.5 8.44244 2.5 9.58332V16.25C2.5 17.3909 3.44245 18.3333 4.58333 18.3333H15.4167C16.5576 18.3333 17.5 17.3909 17.5 16.25V9.58332C17.5 8.44244 16.5576 7.49999 15.4167 7.49999H15V6.66666C15 3.9153 12.7514 1.66666 10 1.66666ZM10 3.33332C11.8503 3.33332 13.3333 4.81634 13.3333 6.66666V7.49999H6.66667V6.66666C6.66667 4.81634 8.14969 3.33332 10 3.33332ZM4.58333 9.16666H5.69336C5.78335 9.18153 5.87518 9.18153 5.96517 9.16666H14.0267C14.1167 9.18153 14.2085 9.18153 14.2985 9.16666H15.4167C15.6558 9.16666 15.8333 9.34421 15.8333 9.58332V16.25C15.8333 16.4891 15.6558 16.6667 15.4167 16.6667H4.58333C4.34422 16.6667 4.16667 16.4891 4.16667 16.25V9.58332C4.16667 9.34421 4.34422 9.16666 4.58333 9.16666ZM6.66667 12.5C6.44565 12.5 6.23369 12.5878 6.07741 12.7441C5.92113 12.9003 5.83333 13.1123 5.83333 13.3333C5.83333 13.5543 5.92113 13.7663 6.07741 13.9226C6.23369 14.0789 6.44565 14.1667 6.66667 14.1667C6.88768 14.1667 7.09964 14.0789 7.25592 13.9226C7.4122 13.7663 7.5 13.5543 7.5 13.3333C7.5 13.1123 7.4122 12.9003 7.25592 12.7441C7.09964 12.5878 6.88768 12.5 6.66667 12.5ZM10 12.5C9.77899 12.5 9.56702 12.5878 9.41074 12.7441C9.25446 12.9003 9.16667 13.1123 9.16667 13.3333C9.16667 13.5543 9.25446 13.7663 9.41074 13.9226C9.56702 14.0789 9.77899 14.1667 10 14.1667C10.221 14.1667 10.433 14.0789 10.5893 13.9226C10.7455 13.7663 10.8333 13.5543 10.8333 13.3333C10.8333 13.1123 10.7455 12.9003 10.5893 12.7441C10.433 12.5878 10.221 12.5 10 12.5ZM13.3333 12.5C13.1123 12.5 12.9004 12.5878 12.7441 12.7441C12.5878 12.9003 12.5 13.1123 12.5 13.3333C12.5 13.5543 12.5878 13.7663 12.7441 13.9226C12.9004 14.0789 13.1123 14.1667 13.3333 14.1667C13.5543 14.1667 13.7663 14.0789 13.9226 13.9226C14.0789 13.7663 14.1667 13.5543 14.1667 13.3333C14.1667 13.1123 14.0789 12.9003 13.9226 12.7441C13.7663 12.5878 13.5543 12.5 13.3333 12.5Z" fill="#FF015C"/>
</svg>
