<svg width="32" height="32" viewBox="0 0 32 32" fill="none" xmlns="http://www.w3.org/2000/svg">
<path d="M24.0001 4.8H27.2001V8H24.0001V4.8ZM12.8001 1.6H14.4001V3.2H12.8001V1.6ZM14.4001 3.2H17.6001V4.8H14.4001V3.2ZM17.6001 4.8H19.2001V6.4H17.6001V4.8ZM17.6001 1.6H19.2001V3.2H17.6001V1.6ZM16.0001 6.4H17.6001V8H16.0001V6.4ZM14.4001 8H16.0001V9.6H14.4001V8ZM17.6001 8H19.2001V9.6H17.6001V8ZM17.6001 11.2H19.2001V12.8H17.6001V11.2ZM16.0001 22.4H17.6001V24H16.0001V22.4ZM14.4001 24H16.0001V25.6H14.4001V24ZM12.8001 25.6H14.4001V27.2H12.8001V25.6ZM16.0001 25.6H17.6001V27.2H16.0001V25.6ZM16.0001 28.8H17.6001V30.4H16.0001V28.8ZM16.0001 12.8H17.6001V22.4H16.0001V12.8ZM11.2001 12.8H12.8001V14.4H11.2001V12.8ZM8.0001 12.8H9.6001V14.4H8.0001V12.8ZM4.8001 12.8H6.4001V14.4H4.8001V12.8ZM3.2001 16H4.8001V17.6H3.2001V16ZM6.4001 16H8.0001V17.6H6.4001V16ZM9.6001 16H11.2001V17.6H9.6001V16ZM11.2001 17.6H12.8001V19.2H11.2001V17.6ZM12.8001 19.2H14.4001V20.8H12.8001V19.2ZM14.4001 20.8H16.0001V22.4H14.4001V20.8ZM12.8001 22.4H14.4001V24H12.8001V22.4ZM25.6001 24H27.2001V25.6H25.6001V24ZM24.0001 25.6H25.6001V27.2H24.0001V25.6ZM27.2001 25.6H28.8001V27.2H27.2001V25.6ZM27.2001 28.8H28.8001V30.4H27.2001V28.8ZM22.4001 24H24.0001V25.6H22.4001V24ZM25.6001 27.2H27.2001V28.8H25.6001V27.2ZM17.6001 27.2H24.0001V28.8H17.6001V27.2ZM20.8001 22.4H30.4001V24H20.8001V22.4ZM4.8001 17.6H6.4001V19.2H4.8001V17.6ZM1.6001 14.4H11.2001V16H1.6001V14.4ZM28.8001 12.8H30.4001V14.4H28.8001V12.8ZM25.6001 12.8H27.2001V14.4H25.6001V12.8ZM22.4001 12.8H24.0001V14.4H22.4001V12.8ZM20.8001 16H22.4001V17.6H20.8001V16ZM24.0001 16H25.6001V17.6H24.0001V16ZM27.2001 16H28.8001V17.6H27.2001V16ZM28.8001 17.6H30.4001V19.2H28.8001V17.6ZM22.4001 17.6H24.0001V19.2H22.4001V17.6ZM17.6001 19.2H19.2001V20.8H17.6001V19.2ZM20.8001 19.2H22.4001V20.8H20.8001V19.2ZM24.0001 19.2H25.6001V20.8H24.0001V19.2ZM25.6001 20.8H27.2001V22.4H25.6001V20.8ZM19.2001 20.8H20.8001V22.4H19.2001V20.8Z" fill="#66798F"/>
<path d="M14.4 14.4H28.8001V16H14.4V14.4ZM12.8 4.8H14.4V17.6H12.8V4.8ZM28.8001 3.2V9.6H22.4001V3.2H28.8001ZM30.4001 1.6H20.8001V11.2H30.4001V1.6ZM4.80005 4.8H8.00005V8H4.80005V4.8Z" fill="#66798F"/>
<path d="M9.6001 3.2V9.6H3.2001V3.2H9.6001ZM11.2001 1.6H1.6001V11.2H11.2001V1.6ZM4.8001 24H8.0001V27.2H4.8001V24Z" fill="#66798F"/>
<path d="M9.6001 22.4V28.8H3.2001V22.4H9.6001ZM11.2001 20.8H1.6001V30.4H11.2001V20.8Z" fill="#66798F"/>
</svg>
