<svg width="13" height="12" viewBox="0 0 13 12" fill="none" xmlns="http://www.w3.org/2000/svg">
<path d="M6.15219 0.993183C6.1283 0.993755 6.10447 0.996039 6.0809 1.00002H3.66C3.5462 0.999988 3.43579 1.03878 3.34702 1.10998C3.25824 1.18118 3.1964 1.28053 3.17172 1.39162L1.17172 10.3916C1.1555 10.4647 1.1559 10.5405 1.17289 10.6135C1.18989 10.6864 1.22304 10.7546 1.26991 10.813C1.31678 10.8714 1.37616 10.9185 1.44368 10.9509C1.5112 10.9832 1.58512 11 1.66 11H6.07602C6.13002 11.0089 6.18511 11.0089 6.23911 11H10.66C10.7349 11 10.8088 10.9832 10.8763 10.9509C10.9438 10.9185 11.0032 10.8714 11.0501 10.813C11.097 10.7546 11.1301 10.6864 11.1471 10.6135C11.1641 10.5405 11.1645 10.4647 11.1483 10.3916L9.14829 1.39162C9.1236 1.28053 9.06177 1.18118 8.97299 1.10998C8.88421 1.03878 8.77381 0.999988 8.66 1.00002H6.24399C6.21367 0.994922 6.18294 0.992634 6.15219 0.993183ZM4.06137 2.00002H5.66C5.65907 2.06627 5.67131 2.13206 5.69601 2.19354C5.72072 2.25502 5.7574 2.31098 5.80392 2.35817C5.85045 2.40535 5.90588 2.44282 5.96701 2.4684C6.02814 2.49397 6.09374 2.50714 6.16 2.50714C6.22627 2.50714 6.29187 2.49397 6.353 2.4684C6.41413 2.44282 6.46956 2.40535 6.51608 2.35817C6.56261 2.31098 6.59929 2.25502 6.62399 2.19354C6.6487 2.13206 6.66094 2.06627 6.66 2.00002H8.25864L10.037 10H6.66V9.00002C6.66094 8.93376 6.6487 8.86798 6.62399 8.8065C6.59929 8.74501 6.56261 8.68905 6.51608 8.64187C6.46956 8.59468 6.41413 8.55721 6.353 8.53164C6.29187 8.50607 6.22627 8.4929 6.16 8.4929C6.09374 8.4929 6.02814 8.50607 5.96701 8.53164C5.90588 8.55721 5.85045 8.59468 5.80392 8.64187C5.7574 8.68905 5.72072 8.74501 5.69601 8.8065C5.67131 8.86798 5.65907 8.93376 5.66 9.00002V10H2.28305L4.06137 2.00002ZM6.15219 2.99318C6.01975 2.99525 5.89355 3.04978 5.80127 3.1448C5.709 3.23983 5.65819 3.36758 5.66 3.50002V4.00002C5.65907 4.06627 5.67131 4.13206 5.69601 4.19354C5.72072 4.25502 5.7574 4.31098 5.80392 4.35817C5.85045 4.40535 5.90588 4.44282 5.96701 4.4684C6.02814 4.49397 6.09374 4.50714 6.16 4.50714C6.22627 4.50714 6.29187 4.49397 6.353 4.4684C6.41413 4.44282 6.46956 4.40535 6.51608 4.35817C6.56261 4.31098 6.59929 4.25502 6.62399 4.19354C6.6487 4.13206 6.66094 4.06627 6.66 4.00002V3.50002C6.66092 3.43312 6.6484 3.36673 6.6232 3.30476C6.59799 3.24278 6.5606 3.1865 6.51325 3.13924C6.4659 3.09198 6.40954 3.0547 6.34753 3.02962C6.28551 3.00453 6.21908 2.99214 6.15219 2.99318ZM6.15219 5.49318C6.01975 5.49525 5.89355 5.54978 5.80127 5.6448C5.709 5.73983 5.65819 5.86758 5.66 6.00002V7.00002C5.65907 7.06627 5.67131 7.13206 5.69601 7.19354C5.72072 7.25502 5.7574 7.31098 5.80392 7.35817C5.85045 7.40535 5.90588 7.44282 5.96701 7.4684C6.02814 7.49397 6.09374 7.50714 6.16 7.50714C6.22627 7.50714 6.29187 7.49397 6.353 7.4684C6.41413 7.44282 6.46956 7.40535 6.51608 7.35817C6.56261 7.31098 6.59929 7.25502 6.62399 7.19354C6.6487 7.13206 6.66094 7.06627 6.66 7.00002V6.00002C6.66092 5.93312 6.6484 5.86673 6.6232 5.80476C6.59799 5.74278 6.5606 5.6865 6.51325 5.63924C6.4659 5.59198 6.40954 5.5547 6.34753 5.52961C6.28551 5.50453 6.21908 5.49214 6.15219 5.49318Z" fill="#1565C0"/>
</svg>
