<svg width="24" height="24" viewBox="0 0 24 24" fill="none" xmlns="http://www.w3.org/2000/svg">
<g clip-path="url(#clip0_1997_7642)">
<path opacity="0.35" d="M5.5 18C5.116 18 4.732 17.854 4.439 17.561L0.438996 13.561C-0.147004 12.975 -0.147004 12.026 0.438996 11.44C1.025 10.854 1.974 10.854 2.56 11.44L5.5 14.379L14.439 5.43999C15.025 4.85399 15.974 4.85399 16.56 5.43999C17.146 6.02599 17.146 6.97499 16.56 7.56099L6.56 17.561C6.268 17.854 5.884 18 5.5 18Z" fill="#111214"/>
<path d="M12.5 18C12.116 18 11.732 17.854 11.439 17.561L7.439 13.561C6.853 12.975 6.853 12.026 7.439 11.44C8.025 10.854 8.974 10.854 9.56 11.44L12.499 14.379L21.438 5.43999C22.024 4.85399 22.973 4.85399 23.559 5.43999C24.145 6.02599 24.145 6.97499 23.559 7.56099L13.559 17.561C13.268 17.854 12.884 18 12.5 18Z" fill="#111214"/>
</g>
<defs>
<clipPath id="clip0_1997_7642">
<rect width="24" height="24" fill="white"/>
</clipPath>
</defs>
</svg>
