<svg width="21" height="20" viewBox="0 0 21 20" fill="none" xmlns="http://www.w3.org/2000/svg">
<path fill-rule="evenodd" clip-rule="evenodd" d="M3.8335 17.5C3.8335 17.0397 4.20659 16.6666 4.66683 16.6666H16.3335C16.7937 16.6666 17.1668 17.0397 17.1668 17.5C17.1668 17.9602 16.7937 18.3333 16.3335 18.3333H4.66683C4.20659 18.3333 3.8335 17.9602 3.8335 17.5Z" fill="white"/>
<path fill-rule="evenodd" clip-rule="evenodd" d="M10.4998 2.5C10.9601 2.5 11.3332 2.8731 11.3332 3.33333V10C11.3332 10.4602 10.9601 10.8333 10.4998 10.8333C10.0396 10.8333 9.6665 10.4602 9.6665 10V3.33333C9.6665 2.8731 10.0396 2.5 10.4998 2.5Z" fill="white"/>
<path fill-rule="evenodd" clip-rule="evenodd" d="M10.4998 12.5C10.9601 12.5 11.3332 12.8731 11.3332 13.3333V14.1667C11.3332 14.6269 10.9601 15 10.4998 15C10.0396 15 9.6665 14.6269 9.6665 14.1667V13.3333C9.6665 12.8731 10.0396 12.5 10.4998 12.5Z" fill="white"/>
<path fill-rule="evenodd" clip-rule="evenodd" d="M9.91058 1.9107C10.236 1.58527 10.7637 1.58527 11.0891 1.9107L13.5891 4.4107C13.9145 4.73614 13.9145 5.26378 13.5891 5.58922C13.2637 5.91465 12.736 5.91465 12.4106 5.58922L10.4998 3.67847L8.58909 5.58922C8.26366 5.91465 7.73602 5.91465 7.41058 5.58922C7.08514 5.26378 7.08514 4.73614 7.41058 4.4107L9.91058 1.9107Z" fill="white"/>
</svg>
