<svg width="24" height="24" viewBox="0 0 24 24" fill="none" xmlns="http://www.w3.org/2000/svg">
<g clip-path="url(#clip0_124_3875)">
<path opacity="0.35" d="M18.0001 22.9995L17.0001 19.9995H5.00012C3.34312 19.9995 2.00012 18.6565 2.00012 16.9995V6.99951C2.00012 5.34251 3.34312 3.99951 5.00012 3.99951H19.0001C20.6571 3.99951 22.0001 5.34251 22.0001 6.99951V16.9995C22.0001 17.3505 23.0001 19.9995 23.0001 19.9995L21.0001 22.9995H18.0001Z" fill="#292A2B"/>
<path d="M17 10C18.1046 10 19 9.10457 19 8C19 6.89543 18.1046 6 17 6C15.8954 6 15 6.89543 15 8C15 9.10457 15.8954 10 17 10Z" fill="#292A2B"/>
<path d="M14.119 13.992C14.077 13.993 14.043 14 14 14C11.557 14 10 9 8 9C6 9 4 13.362 4 16C4 16.548 4.448 17 5 17H12.295C12.64 15.844 13.276 14.814 14.119 13.992Z" fill="#292A2B"/>
<path d="M19.0001 14.0005C16.2401 14.0005 14.0001 16.2405 14.0001 19.0005C14.0001 21.7605 16.2401 24.0005 19.0001 24.0005C21.7601 24.0005 24.0001 21.7605 24.0001 19.0005C24.0001 16.2405 21.7601 14.0005 19.0001 14.0005ZM21.5001 20.0005H20.0001V21.5005C20.0001 22.0505 19.5501 22.5005 19.0001 22.5005C18.4501 22.5005 18.0001 22.0505 18.0001 21.5005V20.0005H16.5001C15.9501 20.0005 15.5001 19.5505 15.5001 19.0005C15.5001 18.4505 15.9501 18.0005 16.5001 18.0005H18.0001V16.5005C18.0001 15.9505 18.4501 15.5005 19.0001 15.5005C19.5501 15.5005 20.0001 15.9505 20.0001 16.5005V18.0005H21.5001C22.0501 18.0005 22.5001 18.4505 22.5001 19.0005C22.5001 19.5505 22.0501 20.0005 21.5001 20.0005Z" fill="#292A2B"/>
</g>
<defs>
<clipPath id="clip0_124_3875">
<rect width="24" height="24" fill="white"/>
</clipPath>
</defs>
</svg>
