<svg width="24" height="24" viewBox="0 0 24 24" fill="none" xmlns="http://www.w3.org/2000/svg">
<path d="M12 2C6.48899 2 2 6.489 2 12C2 17.511 6.48899 22 12 22C17.511 22 22 17.511 22 12C22 6.489 17.511 2 12 2ZM12 4C16.4301 4 20 7.56988 20 12C20 16.4301 16.4301 20 12 20C7.56987 20 4 16.4301 4 12C4 7.56988 7.56987 4 12 4ZM12 7C11.7348 7 11.4804 7.10536 11.2929 7.29289C11.1054 7.48043 11 7.73478 11 8C11 8.26522 11.1054 8.51957 11.2929 8.70711C11.4804 8.89464 11.7348 9 12 9C12.2652 9 12.5196 8.89464 12.7071 8.70711C12.8946 8.51957 13 8.26522 13 8C13 7.73478 12.8946 7.48043 12.7071 7.29289C12.5196 7.10536 12.2652 7 12 7ZM11.9844 10.9863C11.7195 10.9905 11.4671 11.0995 11.2825 11.2896C11.098 11.4796 10.9964 11.7351 11 12V17C10.9981 17.1325 11.0226 17.2641 11.072 17.387C11.1214 17.51 11.1948 17.6219 11.2878 17.7163C11.3809 17.8107 11.4918 17.8856 11.614 17.9368C11.7363 17.9879 11.8675 18.0142 12 18.0142C12.1325 18.0142 12.2637 17.9879 12.386 17.9368C12.5082 17.8856 12.6191 17.8107 12.7122 17.7163C12.8052 17.6219 12.8786 17.51 12.928 17.387C12.9774 17.2641 13.0019 17.1325 13 17V12C13.0018 11.8662 12.9768 11.7334 12.9264 11.6095C12.876 11.4855 12.8012 11.373 12.7065 11.2784C12.6118 11.1839 12.4991 11.1094 12.375 11.0592C12.251 11.009 12.1182 10.9842 11.9844 10.9863Z" fill="white"/>
</svg>
