<svg width="88" height="20" viewBox="0 0 88 20" fill="none" xmlns="http://www.w3.org/2000/svg">
<path d="M7.04191 20C5.18047 20 4.24975 19.9929 2.38831 19.9858C1.34766 19.9858 0.651446 19.731 0.314334 19.2356C-0.0227776 18.7332 -0.0887346 18.0962 0.116464 17.3177C0.314334 16.5463 0.695418 15.7395 1.24506 14.9115C1.7434 14.1543 2.32968 13.4395 2.99657 12.7672C3.66347 12.1019 4.33036 11.557 5.00459 11.1465C5.67881 10.736 6.30173 10.5237 6.89534 10.5237H10.9993C12.1572 10.5237 13.1832 10.4317 14.048 10.2477C14.9127 10.0637 15.6603 9.70983 16.2758 9.20028C16.8914 8.69073 17.4191 7.94763 17.8661 6.97098C18.1739 6.31989 18.3205 5.99434 18.6283 5.34324C18.8848 4.77707 19.046 4.33121 19.112 4.01982C19.1779 3.70135 19.0973 3.48196 18.8775 3.35457C18.6576 3.22718 18.2545 3.15641 17.6609 3.15641H11.9154C11.6003 3.15641 11.4537 3.00779 11.483 2.71763C11.5123 2.42746 11.6369 2.09484 11.8641 1.71975C12.1206 1.30928 12.443 0.927113 12.8388 0.56618C13.2345 0.205246 13.5863 0.0212402 13.9014 0.0212402H21.4425C22.1533 0.0212402 22.7249 0.0637032 23.1647 0.148629C23.6117 0.233554 23.8902 0.452946 24.0074 0.806802C24.1247 1.16066 24.0368 1.74098 23.729 2.54778C22.9961 4.46568 22.4538 5.90234 21.9042 7.33899C21.3545 8.77565 20.8122 10.2123 20.0794 12.1302C19.3758 13.9703 18.7089 15.4211 18.0347 16.4756C17.3605 17.5371 16.569 18.3156 15.6456 18.8252C14.7295 19.3277 13.5716 19.6532 12.2085 19.7947C10.8381 19.9363 9.10856 20 7.03459 20H7.04191Z" fill="#FFDD00"/>
<path d="M27.7597 19.9858C26.4552 19.9858 25.3853 19.9363 24.5498 19.8301C23.7144 19.724 23.1501 19.448 22.8643 19.0233C22.5785 18.5987 22.5858 17.9051 22.8863 16.9497C23.5092 14.9469 24.0295 13.2767 24.5132 11.7197C24.9969 10.1628 25.4439 8.71902 25.9276 7.15498C26.4113 5.59801 26.9316 3.92781 27.5545 1.92498C27.7377 1.33758 27.9723 0.91295 28.2581 0.636941C28.5439 0.36801 28.8883 0.184005 29.2767 0.113234C29.6725 0.0424627 30.1415 0 30.6765 0H38.2249C38.54 0 38.7672 0.184005 38.8991 0.552016C39.0383 0.91295 39.0896 1.30927 39.053 1.7339C39.0237 2.09483 38.9211 2.42038 38.7452 2.71054C38.5693 3.00778 38.3128 3.14932 37.9903 3.14932H33.4027C32.9556 3.14932 32.5599 3.22009 32.2155 3.36871C31.871 3.51026 31.5925 3.69426 31.3873 3.8995C31.1821 4.10474 31.0576 4.30997 31.0063 4.50813C30.9476 4.74875 31.0282 4.96815 31.2481 5.15215C31.468 5.34323 31.8417 5.43524 32.384 5.43524C33.3294 5.43524 33.7984 5.42816 34.7438 5.42108C35.0589 5.42108 35.2715 5.56262 35.3741 5.83863C35.4767 6.11464 35.5133 6.41896 35.4693 6.74451C35.4254 7.06298 35.3154 7.33898 35.1542 7.58668C34.993 7.83438 34.7878 7.96885 34.5386 7.983C33.5053 8.01839 32.985 8.03254 31.9516 8.06793C31.38 8.10331 30.911 8.25901 30.5519 8.5421C30.1855 8.8181 29.9583 9.13657 29.8777 9.49043C29.7971 9.83721 29.8923 10.1486 30.1708 10.4246C30.4493 10.7006 30.9476 10.8422 31.6658 10.8422H37.3161C37.9903 10.8422 38.54 11.0828 38.9577 11.557C39.3754 12.0311 39.6832 12.6468 39.8884 13.3829C40.0863 14.1189 40.1742 14.8832 40.1376 15.6758C40.101 16.3977 39.9617 17.0913 39.7052 17.7424C39.4487 18.4005 39.075 18.9384 38.5839 19.3489C38.0929 19.7593 37.4773 19.9646 36.7738 19.9646C34.971 19.9646 33.6225 19.9646 32.2741 19.9717C30.9256 19.9717 29.5772 19.9717 27.7744 19.9787L27.7597 19.9858Z" fill="#FFDD00"/>
<path d="M54.9703 19.9858H48.8364C47.6345 19.9858 46.6305 19.7027 45.861 19.1295C45.0915 18.5562 44.6884 17.8556 44.6445 17.0276C44.6445 16.8011 44.6445 16.6808 44.6298 16.4543C44.6078 15.3008 44.7104 14.1189 44.9229 12.9158C45.1428 11.7127 45.3773 10.46 45.6485 9.17905C46.0515 7.26822 46.33 5.25832 46.4839 3.14933H41.0535C40.7164 3.14933 40.4672 2.9724 40.3133 2.60439C40.1594 2.24346 40.0934 1.85422 40.1228 1.43667C40.1447 1.07573 40.24 0.750184 40.4012 0.460022C40.5625 0.162783 40.7897 0.0212402 41.0975 0.0212402H57.1103C57.4181 0.0212402 57.6819 0.162783 57.9091 0.460022C58.1363 0.750184 58.3122 1.08281 58.4221 1.4579C58.5467 1.86837 58.5686 2.25054 58.5027 2.61147C58.4367 2.9724 58.2242 3.15641 57.8871 3.15641H52.3467C53.1455 5.46355 54.0396 7.57254 55.0216 9.49752C55.7032 10.8422 56.3481 12.1514 56.9271 13.4041C57.506 14.6638 57.9824 15.9165 58.2682 17.1337C58.4514 17.9051 58.2462 18.5846 57.6526 19.1436C57.0516 19.7098 56.1502 19.9858 54.963 19.9858H54.9703Z" fill="#FFDD00"/>
<path d="M86.7472 19.9858H80.3054C79.2647 19.9858 78.1948 19.6532 77.1175 18.9809C76.0402 18.3156 74.8237 17.2116 73.5119 15.69C73.314 15.4777 73.1308 15.3715 72.9695 15.3715C72.8083 15.3715 72.7204 15.506 72.7204 15.7749C72.8083 17.2965 72.5885 18.3864 72.0974 19.0233C71.6064 19.6603 70.8149 19.9858 69.7596 19.9858H63.3399C62.0867 19.9858 61.2292 19.363 60.8848 18.1741C60.6649 17.4027 60.7382 16.5605 61.0314 15.7254C61.3245 14.8974 61.7276 14.0835 62.2186 13.305C62.7096 12.5194 63.1786 11.7834 63.633 11.0969C64.0581 10.4459 64.3952 9.86553 64.637 9.37013C64.8862 8.87473 64.9448 8.46425 64.8349 8.15994C64.7176 7.84147 64.4538 7.45222 64.0581 6.97806C63.6623 6.51097 63.1053 5.87402 62.4018 5.07431C61.7716 4.35952 61.0021 3.45365 60.1226 2.35669C59.8368 1.99576 59.6536 1.67021 59.5657 1.38005C59.4264 0.955418 59.4851 0.622793 59.7416 0.375093C59.9907 0.134471 60.4451 0.0141602 61.0973 0.0141602C61.8375 0.0141602 62.3798 0.11324 62.7316 0.297245C63.0834 0.488328 63.4644 0.764336 63.8748 1.12527C64.4538 1.60651 64.7469 1.84714 65.3405 2.32838C65.8535 2.75301 66.2713 3.07856 66.5791 3.30503C66.8869 3.53149 67.136 3.63765 67.3266 3.63765C67.5318 3.63765 67.693 3.48903 67.7956 3.19179C67.8689 2.98655 68.0081 2.385 68.1694 1.3942C68.2207 0.920033 68.3306 0.573253 68.5211 0.346785C68.7117 0.127394 69.21 0.0141602 70.0161 0.0141602C71.3133 0.0141602 72.2587 0.467096 72.801 1.36589C72.9769 1.65605 73.0795 1.99576 73.1088 2.35669C73.1454 2.71055 73.1601 2.89455 73.1894 3.24841C73.2993 4.47275 73.3579 5.44232 73.4239 6.15003C73.4899 6.85775 73.6364 7.43807 73.8856 7.90516C74.1421 8.37933 74.7064 8.93134 75.6078 9.55413C76.5092 10.1769 77.5792 10.8563 78.803 11.5782C79.895 12.2222 81.0163 12.9087 82.1668 13.6235C83.3101 14.3312 84.38 15.0601 85.3547 15.8032C86.3294 16.5463 87.0769 17.2965 87.5753 18.0467C87.9564 18.6341 88.0883 19.1083 87.9417 19.455C87.7951 19.8089 87.3994 19.9858 86.7618 19.9858H86.7472Z" fill="#FFDD00"/>
</svg>
