<svg width="140" height="228" viewBox="0 0 140 228" fill="none" xmlns="http://www.w3.org/2000/svg">
<mask id="path-1-inside-1_157_2305" fill="white">
<path d="M89.9645 0L48.2339 0.0695741C30.8642 0.0903535 15.4577 14.2402 13.887 31.7722C13.7124 34.5091 12.9441 46.5926 12.1306 59.654L2.15873 68.4319C-0.470979 70.7473 -0.734898 74.7621 1.56943 77.4011C2.82069 78.8319 4.57579 79.5637 6.33583 79.5637C7.81782 79.5637 9.30618 79.0435 10.5072 77.9867L11.0387 77.5171C10.4411 87.518 9.98718 95.586 9.98718 97.0732L10.1663 196.744C10.1781 205.243 13.6803 213.189 20.0342 219.129C26.1544 224.847 34.2092 228 42.7107 228H42.7627L96.1522 227.919C104.819 227.901 112.976 224.481 119.135 218.289C125.273 212.111 128.656 203.914 128.656 195.196L128.506 96.679C128.497 92.9565 128.088 85.1851 127.535 76.2648L129.5 77.9925C130.698 79.0434 132.186 79.5579 133.665 79.5579C135.425 79.5579 137.177 78.8233 138.432 77.3895C140.736 74.7505 140.469 70.7385 137.842 68.4261L127.853 59.6424C127.398 59.2416 126.895 58.9495 126.374 58.7031C125.413 44.861 124.472 32.5225 124.387 31.4301C122.786 14.1 107.37 -2.96849e-07 89.9645 0ZM90.0223 12.7089C101.003 12.7089 110.766 21.6321 111.774 32.5027C111.816 33.0311 115.815 85.52 115.842 96.6963L115.992 195.202C115.989 200.524 113.928 205.535 110.174 209.314C106.405 213.101 101.418 215.195 96.129 215.204L42.7454 215.285H42.7049C37.4189 215.285 32.4343 213.35 28.6657 209.83C24.906 206.315 22.8306 201.66 22.8247 196.715L22.6456 97.0558C22.6456 94.2268 24.9724 56.9513 26.5165 32.7462C27.5045 21.7479 37.2531 12.7903 48.2571 12.7784L90.0223 12.7089ZM69.183 41.7908C49.9941 41.8264 36.2907 47.554 35.7257 47.7974C31.6555 49.5191 28.8967 53.3826 28.5328 57.8798L25.9561 89.2983C25.6632 93.0564 27.1333 96.7884 29.9021 99.2938C32.0348 101.211 34.7724 102.268 37.6092 102.268C38.6031 102.268 39.5878 102.14 40.4575 101.903C41.0521 101.751 55.2512 98.1754 69.4025 98.1516C83.6042 98.1516 97.9369 101.766 98.0818 101.804C101.782 102.751 105.782 101.755 108.649 99.1546C111.423 96.6344 112.886 92.8794 112.554 89.1302L109.897 57.7523C109.524 53.255 106.752 49.4005 102.64 47.6698C101.185 47.0672 87.8779 41.7908 69.183 41.7908ZM69.3679 54.4997C84.0665 54.4997 94.9322 58.3021 97.3134 59.2075L99.8497 89.1592C95.67 88.1855 82.7111 85.4427 69.391 85.4427C56.0502 85.4665 43.0858 88.2245 38.6665 89.2635L41.1219 59.3119C43.4824 58.4065 54.4829 54.5264 69.3679 54.4997ZM69.339 140.801C51.0789 140.83 34.0633 147.83 33.3859 148.112C28.44 150.136 25.4636 155.341 26.1409 160.786L28.7697 181.693C29.3021 185.976 32.0556 189.65 35.9395 191.271C36.5134 191.511 50.202 197.161 69.2697 197.161H69.4372C88.1025 197.129 101.424 191.784 102.9 191.166C106.784 189.525 109.512 185.842 110.024 181.582L112.612 160.652C113.287 155.22 110.293 150.014 105.338 147.996C104.619 147.702 87.5133 140.801 69.339 140.801ZM69.3563 153.509C83.345 153.509 97.042 158.417 99.9942 159.539L97.5099 179.646C95.0813 180.581 84.2103 184.437 69.4141 184.464H69.2697C54.5888 184.464 43.6441 180.624 41.2894 179.727L38.7589 159.643C41.643 158.524 55.3056 153.53 69.3563 153.509Z"/>
<path d="M30.6496 113.891C30.6496 111.044 33.0171 108.73 35.9395 108.73C38.8619 108.73 41.2295 111.042 41.2295 113.891V128.839C41.2295 131.69 38.8619 134 35.9395 134C33.0171 134 30.6472 131.69 30.6496 128.839V113.891Z"/>
<path d="M97.6103 113.891C97.6103 111.044 99.9755 108.73 102.9 108.73C105.823 108.73 108.19 111.042 108.19 113.891V128.839C108.19 131.69 105.823 134 102.9 134C99.9778 134 97.6103 131.69 97.6103 128.839V113.891Z"/>
</mask>
<path d="M89.9645 0L48.2339 0.0695741C30.8642 0.0903535 15.4577 14.2402 13.887 31.7722C13.7124 34.5091 12.9441 46.5926 12.1306 59.654L2.15873 68.4319C-0.470979 70.7473 -0.734898 74.7621 1.56943 77.4011C2.82069 78.8319 4.57579 79.5637 6.33583 79.5637C7.81782 79.5637 9.30618 79.0435 10.5072 77.9867L11.0387 77.5171C10.4411 87.518 9.98718 95.586 9.98718 97.0732L10.1663 196.744C10.1781 205.243 13.6803 213.189 20.0342 219.129C26.1544 224.847 34.2092 228 42.7107 228H42.7627L96.1522 227.919C104.819 227.901 112.976 224.481 119.135 218.289C125.273 212.111 128.656 203.914 128.656 195.196L128.506 96.679C128.497 92.9565 128.088 85.1851 127.535 76.2648L129.5 77.9925C130.698 79.0434 132.186 79.5579 133.665 79.5579C135.425 79.5579 137.177 78.8233 138.432 77.3895C140.736 74.7505 140.469 70.7385 137.842 68.4261L127.853 59.6424C127.398 59.2416 126.895 58.9495 126.374 58.7031C125.413 44.861 124.472 32.5225 124.387 31.4301C122.786 14.1 107.37 -2.96849e-07 89.9645 0ZM90.0223 12.7089C101.003 12.7089 110.766 21.6321 111.774 32.5027C111.816 33.0311 115.815 85.52 115.842 96.6963L115.992 195.202C115.989 200.524 113.928 205.535 110.174 209.314C106.405 213.101 101.418 215.195 96.129 215.204L42.7454 215.285H42.7049C37.4189 215.285 32.4343 213.35 28.6657 209.83C24.906 206.315 22.8306 201.66 22.8247 196.715L22.6456 97.0558C22.6456 94.2268 24.9724 56.9513 26.5165 32.7462C27.5045 21.7479 37.2531 12.7903 48.2571 12.7784L90.0223 12.7089ZM69.183 41.7908C49.9941 41.8264 36.2907 47.554 35.7257 47.7974C31.6555 49.5191 28.8967 53.3826 28.5328 57.8798L25.9561 89.2983C25.6632 93.0564 27.1333 96.7884 29.9021 99.2938C32.0348 101.211 34.7724 102.268 37.6092 102.268C38.6031 102.268 39.5878 102.14 40.4575 101.903C41.0521 101.751 55.2512 98.1754 69.4025 98.1516C83.6042 98.1516 97.9369 101.766 98.0818 101.804C101.782 102.751 105.782 101.755 108.649 99.1546C111.423 96.6344 112.886 92.8794 112.554 89.1302L109.897 57.7523C109.524 53.255 106.752 49.4005 102.64 47.6698C101.185 47.0672 87.8779 41.7908 69.183 41.7908ZM69.3679 54.4997C84.0665 54.4997 94.9322 58.3021 97.3134 59.2075L99.8497 89.1592C95.67 88.1855 82.7111 85.4427 69.391 85.4427C56.0502 85.4665 43.0858 88.2245 38.6665 89.2635L41.1219 59.3119C43.4824 58.4065 54.4829 54.5264 69.3679 54.4997ZM69.339 140.801C51.0789 140.83 34.0633 147.83 33.3859 148.112C28.44 150.136 25.4636 155.341 26.1409 160.786L28.7697 181.693C29.3021 185.976 32.0556 189.65 35.9395 191.271C36.5134 191.511 50.202 197.161 69.2697 197.161H69.4372C88.1025 197.129 101.424 191.784 102.9 191.166C106.784 189.525 109.512 185.842 110.024 181.582L112.612 160.652C113.287 155.22 110.293 150.014 105.338 147.996C104.619 147.702 87.5133 140.801 69.339 140.801ZM69.3563 153.509C83.345 153.509 97.042 158.417 99.9942 159.539L97.5099 179.646C95.0813 180.581 84.2103 184.437 69.4141 184.464H69.2697C54.5888 184.464 43.6441 180.624 41.2894 179.727L38.7589 159.643C41.643 158.524 55.3056 153.53 69.3563 153.509Z" fill="black"/>
<path d="M30.6496 113.891C30.6496 111.044 33.0171 108.73 35.9395 108.73C38.8619 108.73 41.2295 111.042 41.2295 113.891V128.839C41.2295 131.69 38.8619 134 35.9395 134C33.0171 134 30.6472 131.69 30.6496 128.839V113.891Z" fill="black"/>
<path d="M97.6103 113.891C97.6103 111.044 99.9755 108.73 102.9 108.73C105.823 108.73 108.19 111.042 108.19 113.891V128.839C108.19 131.69 105.823 134 102.9 134C99.9778 134 97.6103 131.69 97.6103 128.839V113.891Z" fill="black"/>
<path d="M89.9645 0V-3L89.9595 -3L89.9645 0ZM48.2339 0.0695741L48.2375 3.06957L48.2389 3.06957L48.2339 0.0695741ZM13.887 31.7722L10.8989 31.5044L10.8955 31.5428L10.893 31.5812L13.887 31.7722ZM12.1306 59.654L14.1128 61.9058L15.0474 61.0831L15.1248 59.8404L12.1306 59.654ZM2.15873 68.4319L0.176507 66.18L0.176229 66.1803L2.15873 68.4319ZM1.56943 77.4011L-0.690335 79.3743L-0.68885 79.376L1.56943 77.4011ZM10.5072 77.9867L12.489 80.2389L12.4935 80.2349L10.5072 77.9867ZM11.0387 77.5171L14.0333 77.696L14.464 70.4875L9.05232 75.2689L11.0387 77.5171ZM9.98718 97.0732H6.98718L6.98719 97.0786L9.98718 97.0732ZM10.1663 196.744L13.1663 196.74L13.1663 196.738L10.1663 196.744ZM20.0342 219.129L17.9854 221.321L17.9862 221.322L20.0342 219.129ZM42.7627 228V231H42.7673L42.7627 228ZM96.1522 227.919L96.1567 230.919H96.1583L96.1522 227.919ZM119.135 218.289L121.262 220.404L121.263 220.403L119.135 218.289ZM128.656 195.196H131.656V195.191L128.656 195.196ZM128.506 96.679L131.506 96.6744L131.506 96.6718L128.506 96.679ZM127.535 76.2648L129.517 74.0121L124.094 69.2427L124.541 76.4504L127.535 76.2648ZM129.5 77.9925L127.518 80.2452L127.521 80.2478L129.5 77.9925ZM138.432 77.3895L140.69 79.3648L140.691 79.3627L138.432 77.3895ZM137.842 68.4261L139.825 66.1743L139.823 66.1732L137.842 68.4261ZM127.853 59.6424L125.872 61.8948L125.872 61.8953L127.853 59.6424ZM126.374 58.7031L123.381 58.911L123.503 60.6634L125.091 61.4148L126.374 58.7031ZM124.387 31.4301L127.377 31.1952L127.376 31.1747L127.374 31.1542L124.387 31.4301ZM90.0223 12.7089V9.70886L90.0173 9.70887L90.0223 12.7089ZM111.774 32.5027L114.765 32.2683L114.764 32.2469L114.762 32.2255L111.774 32.5027ZM115.842 96.6963L118.842 96.6918L118.842 96.6892L115.842 96.6963ZM115.992 195.202L118.992 195.203L118.992 195.197L115.992 195.202ZM110.174 209.314L112.301 211.429L112.302 211.428L110.174 209.314ZM96.129 215.204L96.1336 218.204H96.1341L96.129 215.204ZM42.7454 215.285V218.285H42.7499L42.7454 215.285ZM28.6657 209.83L26.617 212.021L26.6177 212.022L28.6657 209.83ZM22.8247 196.715L25.8247 196.711L25.8247 196.709L22.8247 196.715ZM22.6456 97.0558H19.6456L19.6456 97.0612L22.6456 97.0558ZM26.5165 32.7462L23.5285 32.4778L23.525 32.5164L23.5226 32.5552L26.5165 32.7462ZM48.2571 12.7784L48.2603 15.7784L48.2621 15.7784L48.2571 12.7784ZM69.183 41.7908V38.7908L69.1774 38.7908L69.183 41.7908ZM35.7257 47.7974L36.8945 50.5604C36.9006 50.5578 36.9067 50.5552 36.9128 50.5526L35.7257 47.7974ZM28.5328 57.8798L31.5228 58.125L31.523 58.1217L28.5328 57.8798ZM25.9561 89.2983L22.9661 89.0531L22.9651 89.0652L25.9561 89.2983ZM29.9021 99.2938L27.8892 101.518L27.8962 101.525L29.9021 99.2938ZM40.4575 101.903L39.7172 98.9956C39.7005 98.9998 39.6838 99.0042 39.6672 99.0088L40.4575 101.903ZM69.4025 98.1516V95.1516L69.3975 95.1516L69.4025 98.1516ZM98.0818 101.804L97.31 104.703C97.3193 104.706 97.3287 104.708 97.3381 104.711L98.0818 101.804ZM108.649 99.1546L110.665 101.377L110.666 101.375L108.649 99.1546ZM112.554 89.1302L109.565 89.3834L109.566 89.3942L112.554 89.1302ZM109.897 57.7523L106.907 58L106.907 58.0055L109.897 57.7523ZM102.64 47.6698L103.804 44.9048C103.799 44.9025 103.793 44.9003 103.788 44.898L102.64 47.6698ZM69.3679 54.4997V51.4997L69.3625 51.4997L69.3679 54.4997ZM97.3134 59.2075L100.303 58.9544C100.205 57.8051 99.4578 56.8133 98.3796 56.4034L97.3134 59.2075ZM99.8497 89.1592L99.1691 92.0809C100.104 92.2987 101.087 92.056 101.813 91.428C102.538 90.7999 102.92 89.8625 102.839 88.906L99.8497 89.1592ZM69.391 85.4427V82.4427L69.3857 82.4427L69.391 85.4427ZM38.6665 89.2635L35.6765 89.0184C35.5981 89.9747 35.9819 90.9109 36.7091 91.5369C37.4362 92.163 38.419 92.4035 39.3531 92.1839L38.6665 89.2635ZM41.1219 59.3119L40.0475 56.5109C38.9708 56.9238 38.2261 57.9174 38.1319 59.0668L41.1219 59.3119ZM69.339 140.801V137.801H69.3341L69.339 140.801ZM33.3859 148.112L34.5224 150.888C34.5279 150.886 34.5334 150.883 34.5389 150.881L33.3859 148.112ZM26.1409 160.786L23.1639 161.156L23.1644 161.16L26.1409 160.786ZM28.7697 181.693L31.7468 181.323L31.7463 181.318L28.7697 181.693ZM35.9395 191.271L37.0989 188.504L37.0949 188.502L35.9395 191.271ZM69.2697 197.161V200.161V197.161ZM69.4372 197.161V200.161H69.4425L69.4372 197.161ZM102.9 191.166L104.058 193.934L104.068 193.93L102.9 191.166ZM110.024 181.582L107.046 181.214L107.045 181.225L110.024 181.582ZM112.612 160.652L109.635 160.283L109.635 160.284L112.612 160.652ZM105.338 147.996L104.203 150.773L104.206 150.774L105.338 147.996ZM69.3563 153.509V150.509H69.3519L69.3563 153.509ZM99.9942 159.539L102.972 159.907C103.141 158.536 102.352 157.226 101.06 156.735L99.9942 159.539ZM97.5099 179.646L98.5878 182.446C99.6212 182.048 100.351 181.113 100.487 180.014L97.5099 179.646ZM69.4141 184.464V187.464H69.4195L69.4141 184.464ZM41.2894 179.727L38.313 180.102C38.4516 181.202 39.1857 182.136 40.222 182.531L41.2894 179.727ZM38.7589 159.643L37.6737 156.847C36.3901 157.345 35.6103 158.653 35.7825 160.019L38.7589 159.643ZM30.6496 128.839L33.6496 128.842V128.839H30.6496ZM89.9595 -3L48.2289 -2.93042L48.2389 3.06957L89.9695 3L89.9595 -3ZM48.2304 -2.93042C29.2911 -2.90777 12.6065 12.4448 10.8989 31.5044L16.875 32.0399C18.3088 16.0357 32.4374 3.08847 48.2375 3.06957L48.2304 -2.93042ZM10.893 31.5812C10.7185 34.319 9.95001 46.4041 9.13642 59.4675L15.1248 59.8404C15.9382 46.7811 16.7064 34.6992 16.8809 31.9631L10.893 31.5812ZM10.1484 57.4021L0.176507 66.18L4.14095 70.6837L14.1128 61.9058L10.1484 57.4021ZM0.176229 66.1803C-3.69301 69.5871 -4.08156 75.4906 -0.690334 79.3743L3.82919 75.4279C2.61176 74.0337 2.75106 71.9075 4.14123 70.6835L0.176229 66.1803ZM-0.68885 79.376C1.1562 81.4858 3.74774 82.5637 6.33583 82.5637V76.5637C5.40384 76.5637 4.48517 76.1781 3.82771 75.4263L-0.68885 79.376ZM6.33583 82.5637C8.52177 82.5637 10.7214 81.7943 12.489 80.2389L8.52534 75.7345C7.89099 76.2927 7.11386 76.5637 6.33583 76.5637V82.5637ZM12.4935 80.2349L13.025 79.7653L9.05232 75.2689L8.5208 75.7385L12.4935 80.2349ZM8.04402 77.3382C7.45122 87.2598 6.98718 95.4684 6.98718 97.0732H12.9872C12.9872 95.7035 13.4311 87.7761 14.0333 77.696L8.04402 77.3382ZM6.98719 97.0786L7.16629 196.749L13.1663 196.738L12.9872 97.0678L6.98719 97.0786ZM7.16628 196.748C7.1793 206.097 11.0416 214.829 17.9854 221.321L22.0829 216.938C16.3189 211.549 13.1769 204.388 13.1663 196.74L7.16628 196.748ZM17.9862 221.322C24.6706 227.566 33.4607 231 42.7107 231V225C34.9578 225 27.6382 222.127 22.0821 216.937L17.9862 221.322ZM42.7107 231H42.7627V225H42.7107V231ZM42.7673 231L96.1567 230.919L96.1476 224.919L42.7581 225L42.7673 231ZM96.1583 230.919C105.629 230.899 114.547 227.156 121.262 220.404L117.008 216.173C111.405 221.806 104.009 224.903 96.146 224.919L96.1583 230.919ZM121.263 220.403C127.959 213.664 131.656 204.707 131.656 195.196H125.656C125.656 203.122 122.587 210.558 117.007 216.174L121.263 220.403ZM131.656 195.191L131.506 96.6744L125.506 96.6835L125.656 195.2L131.656 195.191ZM131.506 96.6718C131.497 92.8416 131.081 84.9732 130.53 76.0791L124.541 76.4504C125.096 85.397 125.497 93.0713 125.506 96.6861L131.506 96.6718ZM125.554 78.5174L127.518 80.2452L131.481 75.7399L129.517 74.0121L125.554 78.5174ZM127.521 80.2478C129.291 81.7997 131.491 82.5579 133.665 82.5579V76.5579C132.882 76.5579 132.105 76.2871 131.478 75.7372L127.521 80.2478ZM133.665 82.5579C136.259 82.5579 138.845 81.473 140.69 79.3647L136.174 75.4143C135.509 76.1737 134.591 76.5579 133.665 76.5579V82.5579ZM140.691 79.3627C144.083 75.4779 143.69 69.5773 139.825 66.1743L135.86 70.6778C137.248 71.8998 137.388 74.0232 136.172 75.4164L140.691 79.3627ZM139.823 66.1732L129.834 57.3895L125.872 61.8953L135.861 70.679L139.823 66.1732ZM129.835 57.3899C129.098 56.7417 128.328 56.3089 127.657 55.9915L125.091 61.4148C125.461 61.5901 125.697 61.7415 125.872 61.8948L129.835 57.3899ZM129.367 58.4953C128.405 44.6445 127.464 32.2969 127.377 31.1952L121.396 31.6649C121.481 32.748 122.42 45.0776 123.381 58.911L129.367 58.4953ZM127.374 31.1542C125.631 12.2856 108.925 -3 89.9645 -3V3C105.815 3 119.941 15.9145 121.399 31.7059L127.374 31.1542ZM90.0223 15.7089C99.454 15.7089 107.922 23.4529 108.787 32.7799L114.762 32.2255C113.61 19.8112 102.551 9.70886 90.0223 9.70886V15.7089ZM108.784 32.7371C108.831 33.3479 112.815 85.6744 112.842 96.7035L118.842 96.6892C118.815 85.3655 114.8 32.7143 114.765 32.2683L108.784 32.7371ZM112.842 96.7009L112.992 195.206L118.992 195.197L118.842 96.6918L112.842 96.7009ZM112.992 195.2C112.989 199.733 111.24 203.984 108.046 207.199L112.302 211.428C116.616 207.086 118.989 201.315 118.992 195.203L112.992 195.2ZM108.047 207.198C104.833 210.428 100.606 212.197 96.124 212.204L96.1341 218.204C102.23 218.194 107.978 215.775 112.301 211.429L108.047 207.198ZM96.1245 212.204L42.7408 212.285L42.7499 218.285L96.1336 218.204L96.1245 212.204ZM42.7454 212.285H42.7049V218.285H42.7454V212.285ZM42.7049 212.285C38.157 212.285 33.9106 210.624 30.7137 207.637L26.6177 212.022C30.9579 216.076 36.6808 218.285 42.7049 218.285V212.285ZM30.7144 207.638C27.5317 204.663 25.8296 200.789 25.8247 196.711L19.8247 196.718C19.8316 202.532 22.2803 207.967 26.617 212.021L30.7144 207.638ZM25.8247 196.709L25.6456 97.0504L19.6456 97.0612L19.8247 196.72L25.8247 196.709ZM25.6456 97.0558C25.6456 94.3538 27.9596 57.2478 29.5104 32.9372L23.5226 32.5552C21.9852 56.6547 19.6456 94.0999 19.6456 97.0558H25.6456ZM29.5045 33.0146C30.3545 23.5518 38.8179 15.7886 48.2603 15.7784L48.2538 9.77844C35.6883 9.792 24.6544 19.9441 23.5285 32.4778L29.5045 33.0146ZM48.2621 15.7784L90.0273 15.7089L90.0173 9.70887L48.2521 9.77844L48.2621 15.7784ZM69.1774 38.7908C49.4363 38.8275 35.3144 44.708 34.5387 45.0422L36.9128 50.5526C37.2671 50.3999 50.5518 44.8254 69.1886 44.7908L69.1774 38.7908ZM34.557 45.0344C29.4321 47.2022 25.9943 52.0541 25.5426 57.6379L31.523 58.1217C31.799 54.711 33.8788 51.836 36.8945 50.5604L34.557 45.0344ZM25.5429 57.6346L22.9661 89.0531L28.946 89.5435L31.5228 58.125L25.5429 57.6346ZM22.9651 89.0652C22.6011 93.7366 24.4216 98.3805 27.8892 101.518L31.915 97.0693C29.845 95.1962 28.7253 92.3763 28.947 89.5314L22.9651 89.0652ZM27.8962 101.525C30.5729 103.931 34.0226 105.268 37.6092 105.268V99.2681C35.5222 99.2681 33.4968 98.4916 31.9079 97.0629L27.8962 101.525ZM37.6092 105.268C38.848 105.268 40.1001 105.11 41.2478 104.797L39.6672 99.0088C39.0755 99.1703 38.3582 99.2681 37.6092 99.2681V105.268ZM41.1977 104.81C41.7475 104.67 55.6468 101.175 69.4076 101.152L69.3975 95.1516C54.8556 95.176 40.3566 98.8328 39.7172 98.9956L41.1977 104.81ZM69.4025 101.152C76.273 101.152 83.2258 102.028 88.5137 102.922C93.7988 103.814 97.3274 104.708 97.31 104.703L98.8537 98.9052C98.6228 98.8438 83.9936 95.1516 69.4025 95.1516V101.152ZM97.3381 104.711C102.024 105.91 107.059 104.648 110.665 101.377L106.633 96.9327C104.506 98.8624 101.54 99.5926 98.8255 98.8979L97.3381 104.711ZM110.666 101.375C114.139 98.2207 115.956 93.5446 115.543 88.8661L109.566 89.3942C109.815 92.2141 108.708 95.048 106.632 96.9339L110.666 101.375ZM115.544 88.877L112.886 57.4991L106.907 58.0055L109.565 89.3834L115.544 88.877ZM112.886 57.5045C112.423 51.9113 108.962 47.0758 103.804 44.9048L101.476 50.4349C104.542 51.7251 106.625 54.5987 106.907 58L112.886 57.5045ZM103.788 44.898C102.125 44.2095 88.4115 38.7908 69.183 38.7908V44.7908C87.3443 44.7908 100.245 49.925 101.493 50.4416L103.788 44.898ZM69.3679 57.4997C83.576 57.4997 94.0645 61.1818 96.2472 62.0117L98.3796 56.4034C95.7999 55.4225 84.5569 51.4997 69.3679 51.4997V57.4997ZM94.3241 59.4607L96.8604 89.4123L102.839 88.906L100.303 58.9544L94.3241 59.4607ZM100.53 86.2374C96.2767 85.2465 83.0547 82.4427 69.391 82.4427V88.4427C82.3675 88.4427 95.0633 91.1245 99.1691 92.0809L100.53 86.2374ZM69.3857 82.4427C55.7013 82.4671 42.4741 85.2866 37.9799 86.3431L39.3531 92.1839C43.6976 91.1625 56.399 88.4659 69.3963 88.4427L69.3857 82.4427ZM41.6565 89.5086L44.1119 59.557L38.1319 59.0668L35.6765 89.0184L41.6565 89.5086ZM42.1962 62.1129C44.3563 61.2844 54.9791 57.5255 69.3733 57.4997L69.3625 51.4997C53.9868 51.5273 42.6086 55.5286 40.0475 56.5109L42.1962 62.1129ZM69.3341 137.801C50.4561 137.831 32.9856 145.029 32.2329 145.342L34.5389 150.881C35.141 150.63 51.7018 143.829 69.3439 143.801L69.3341 137.801ZM32.2494 145.335C26.0041 147.892 22.3255 154.417 23.1639 161.156L29.118 160.415C28.6017 156.265 30.8759 152.381 34.5224 150.888L32.2494 145.335ZM23.1644 161.16L25.7931 182.067L31.7463 181.318L29.1175 160.411L23.1644 161.16ZM25.7926 182.063C26.454 187.383 29.8777 191.992 34.7842 194.039L37.0949 188.502C34.2335 187.308 32.1503 184.569 31.7468 181.323L25.7926 182.063ZM34.7802 194.038C35.5453 194.358 49.6496 200.161 69.2697 200.161V194.161C50.7545 194.161 37.4815 188.664 37.0989 188.504L34.7802 194.038ZM69.2697 200.161H69.4372V194.161H69.2697V200.161ZM69.4425 200.161C88.6465 200.128 102.377 194.637 104.058 193.934L101.743 188.399C100.471 188.93 87.5586 194.13 69.432 194.161L69.4425 200.161ZM104.068 193.93C108.971 191.857 112.366 187.239 113.002 181.94L107.045 181.225C106.658 184.446 104.597 187.192 101.732 188.403L104.068 193.93ZM113.001 181.951L115.589 161.02L109.635 160.284L107.047 181.214L113.001 181.951ZM115.589 161.022C116.425 154.287 112.72 147.764 106.47 145.217L104.206 150.774C107.866 152.265 110.148 156.153 109.635 160.283L115.589 161.022ZM106.474 145.219C105.682 144.895 88.1247 137.801 69.339 137.801V143.801C86.9019 143.801 103.557 150.508 104.203 150.773L106.474 145.219ZM69.3563 156.509C82.776 156.509 96.0501 161.249 98.9283 162.343L101.06 156.735C98.0339 155.585 83.9139 150.509 69.3563 150.509V156.509ZM97.0168 159.171L94.5325 179.278L100.487 180.014L102.972 159.907L97.0168 159.171ZM96.4319 176.846C94.2031 177.705 83.7114 181.438 69.4087 181.464L69.4195 187.464C84.7092 187.436 95.9595 183.458 98.5878 182.446L96.4319 176.846ZM69.4141 181.464H69.2697V187.464H69.4141V181.464ZM69.2697 181.464C55.0824 181.464 44.5162 177.746 42.3569 176.924L40.222 182.531C42.7719 183.502 54.0953 187.464 69.2697 187.464V181.464ZM44.2659 179.352L41.7354 159.268L35.7825 160.019L38.313 180.102L44.2659 179.352ZM39.8442 162.44C42.6503 161.351 55.8858 156.529 69.3608 156.509L69.3519 150.509C54.7253 150.531 40.6358 155.697 37.6737 156.847L39.8442 162.44ZM35.9395 105.73C31.4289 105.73 27.6496 109.32 27.6496 113.891H33.6496C33.6496 112.769 34.6053 111.73 35.9395 111.73V105.73ZM27.6496 113.891V128.839H33.6496V113.891H27.6496ZM27.6496 128.837C27.6458 133.419 31.433 137 35.9395 137V131C34.6012 131 33.6486 129.962 33.6496 128.842L27.6496 128.837ZM35.9395 137C40.4483 137 44.2295 133.417 44.2295 128.839H38.2295C38.2295 129.964 37.2755 131 35.9395 131V137ZM44.2295 128.839V113.891H38.2295V128.839H44.2295ZM44.2295 113.891C44.2295 109.317 40.4492 105.73 35.9395 105.73V111.73C37.2747 111.73 38.2295 112.768 38.2295 113.891H44.2295ZM102.9 105.73C98.3864 105.73 94.6103 109.321 94.6103 113.891H100.61C100.61 112.768 101.564 111.73 102.9 111.73V105.73ZM94.6103 113.891V128.839H100.61V113.891H94.6103ZM94.6103 128.839C94.6103 133.417 98.3914 137 102.9 137V131C101.564 131 100.61 129.964 100.61 128.839H94.6103ZM102.9 137C107.409 137 111.19 133.417 111.19 128.839H105.19C105.19 129.964 104.236 131 102.9 131V137ZM111.19 128.839V113.891H105.19V128.839H111.19ZM111.19 113.891C111.19 109.317 107.41 105.73 102.9 105.73V111.73C104.235 111.73 105.19 112.768 105.19 113.891H111.19Z" fill="white" mask="url(#path-1-inside-1_157_2305)"/>
</svg>
