<svg width="64" height="64" viewBox="0 0 64 64" fill="none" xmlns="http://www.w3.org/2000/svg">
<rect width="64" height="64" rx="20" fill="#FFECF3"/>
<path d="M48 50C46.896 50 46 49.104 46 48C46 46.896 46.896 46 48 46C49.104 46 50 46.896 50 48C50 49.104 49.104 50 48 50Z" fill="#FF015C"/>
<path d="M44 46C42.896 46 42 45.104 42 44C42 42.896 42.896 42 44 42C45.104 42 46 42.896 46 44C46 45.104 45.104 46 44 46Z" fill="#FF015C"/>
<path d="M40 50C38.896 50 38 49.104 38 48C38 46.896 38.896 46 40 46C41.104 46 42 46.896 42 48C42 49.104 41.104 50 40 50Z" fill="#FF015C"/>
<path d="M36 46C34.896 46 34 45.104 34 44C34 42.896 34.896 42 36 42C37.104 42 38 42.896 38 44C38 45.104 37.104 46 36 46Z" fill="#FF015C"/>
<path d="M40 42C38.896 42 38 41.104 38 40C38 38.896 38.896 38 40 38C41.104 38 42 38.896 42 40C42 41.104 41.104 42 40 42Z" fill="#FF015C"/>
<path d="M48 42C46.896 42 46 41.104 46 40C46 38.896 46.896 38 48 38C49.104 38 50 38.896 50 40C50 41.104 49.104 42 48 42Z" fill="#FF015C"/>
<path d="M44 38C42.896 38 42 37.104 42 36C42 34.896 42.896 34 44 34C45.104 34 46 34.896 46 36C46 37.104 45.104 38 44 38Z" fill="#FF015C"/>
<path d="M36 38C34.896 38 34 37.104 34 36C34 34.896 34.896 34 36 34C37.104 34 38 34.896 38 36C38 37.104 37.104 38 36 38Z" fill="#FF015C"/>
<path opacity="0.35" d="M24 30H20C16.686 30 14 27.314 14 24V20C14 16.686 16.686 14 20 14H24C27.314 14 30 16.686 30 20V24C30 27.314 27.314 30 24 30Z" fill="#FF015C"/>
<path opacity="0.35" d="M44 30H40C36.686 30 34 27.314 34 24V20C34 16.686 36.686 14 40 14H44C47.314 14 50 16.686 50 20V24C50 27.314 47.314 30 44 30Z" fill="#FF015C"/>
<path opacity="0.35" d="M24 50H20C16.686 50 14 47.314 14 44V40C14 36.686 16.686 34 20 34H24C27.314 34 30 36.686 30 40V44C30 47.314 27.314 50 24 50Z" fill="#FF015C"/>
<path d="M24 26H20C18.896 26 18 25.104 18 24V20C18 18.896 18.896 18 20 18H24C25.104 18 26 18.896 26 20V24C26 25.104 25.104 26 24 26Z" fill="#FF015C"/>
<path d="M44 26H40C38.896 26 38 25.104 38 24V20C38 18.896 38.896 18 40 18H44C45.104 18 46 18.896 46 20V24C46 25.104 45.104 26 44 26Z" fill="#FF015C"/>
<path d="M24 46H20C18.896 46 18 45.104 18 44V40C18 38.896 18.896 38 20 38H24C25.104 38 26 38.896 26 40V44C26 45.104 25.104 46 24 46Z" fill="#FF015C"/>
</svg>
