<svg width="28" height="28" viewBox="0 0 28 28" fill="none" xmlns="http://www.w3.org/2000/svg">
<path opacity="0.35" d="M4.66666 11.6667C4.66666 6.51233 8.84566 2.33333 14 2.33333C19.1543 2.33333 23.3333 6.51233 23.3333 11.6667C23.3333 15.8247 18.592 21.7607 15.8678 24.8267C14.875 25.9443 13.125 25.9443 12.1322 24.8267C9.408 21.7607 4.66666 15.8247 4.66666 11.6667Z" fill="#707172"/>
<path d="M14 15.1667C15.933 15.1667 17.5 13.5997 17.5 11.6667C17.5 9.73367 15.933 8.16667 14 8.16667C12.067 8.16667 10.5 9.73367 10.5 11.6667C10.5 13.5997 12.067 15.1667 14 15.1667Z" fill="#707172"/>
</svg>
